<?xml version="1.0" encoding="utf-8" standalone="no"?>
<!DOCTYPE svg PUBLIC "-//W3C//DTD SVG 1.1//EN"
  "http://www.w3.org/Graphics/SVG/1.1/DTD/svg11.dtd">
<svg xmlns:xlink="http://www.w3.org/1999/xlink" width="339.650312pt" height="231.648812pt" viewBox="0 0 339.650312 231.648812" xmlns="http://www.w3.org/2000/svg" version="1.1">
 <metadata>
  <rdf:RDF xmlns:dc="http://purl.org/dc/elements/1.1/" xmlns:cc="http://creativecommons.org/ns#" xmlns:rdf="http://www.w3.org/1999/02/22-rdf-syntax-ns#">
   <cc:Work>
    <dc:type rdf:resource="http://purl.org/dc/dcmitype/StillImage"/>
    <dc:date>2026-05-07T13:55:41.034533</dc:date>
    <dc:format>image/svg+xml</dc:format>
    <dc:creator>
     <cc:Agent>
      <dc:title>Matplotlib v3.9.4, https://matplotlib.org/</dc:title>
     </cc:Agent>
    </dc:creator>
   </cc:Work>
  </rdf:RDF>
 </metadata>
 <defs>
  <style type="text/css">*{stroke-linejoin: round; stroke-linecap: butt}</style>
 </defs>
 <g id="figure_1">
  <g id="patch_1">
   <path d="M 0 231.648812 
L 339.650312 231.648812 
L 339.650312 0 
L 0 0 
z
" style="fill: #ffffff"/>
  </g>
  <g id="axes_1">
   <g id="patch_2">
    <path d="M 42.290313 195.696 
L 332.450313 195.696 
L 332.450313 7.2 
L 42.290313 7.2 
z
" style="fill: #ffffff"/>
   </g>
   <g id="matplotlib.axis_1">
    <g id="xtick_1">
     <g id="line2d_1">
      <path d="M 270.517537 195.696 
L 270.517537 7.2 
" clip-path="url(#pa9e02035d5)" style="fill: none; stroke: #cccccc; stroke-opacity: 0.35; stroke-width: 0.45; stroke-linecap: round"/>
     </g>
     <g id="text_1">
      <!-- $\mathdefault{10^{0}}$ -->
      <g style="fill: #262626" transform="translate(263.477537 210.07475)">
       <text>
        <tspan style="font: 8px 'DejaVu Sans'" x="0 5.089844" y="-0.78125">10</tspan>
        <tspan style="font: 5.6px 'DejaVu Sans'" x="10.25625" y="-3.84375">0</tspan>
       </text>
      </g>
     </g>
    </g>
    <g id="xtick_2">
     <g id="text_2">
      <!-- $\mathdefault{4\times10^{-1}}$ -->
      <g style="fill: #262626" transform="translate(38.639403 208.37475)">
       <text>
        <tspan style="font: 8px 'DejaVu Sans'" x="0 6.648438 14.910156 20" y="-0.8578125000000005">4×10</tspan>
        <tspan style="font: 5.6px 'DejaVu Sans'" x="25.166406 29.858594" y="-3.9203125000000005">−1</tspan>
       </text>
      </g>
     </g>
    </g>
    <g id="xtick_3"/>
    <g id="xtick_4">
     <g id="text_3">
      <!-- $\mathdefault{6\times10^{-1}}$ -->
      <g style="fill: #262626" transform="translate(133.795294 208.37475)">
       <text>
        <tspan style="font: 8px 'DejaVu Sans'" x="0 6.648438 14.910156 20" y="-0.8578125000000005">6×10</tspan>
        <tspan style="font: 5.6px 'DejaVu Sans'" x="25.166406 29.858594" y="-3.9203125000000005">−1</tspan>
       </text>
      </g>
     </g>
    </g>
    <g id="xtick_5"/>
    <g id="xtick_6"/>
    <g id="xtick_7"/>
    <g id="text_4">
     <text style="fill: #262626; font: 9px 'DejaVu Sans'; text-anchor: middle" x="187.370313" y="222.577094" transform="rotate(-0 187.370313 222.577094)">Arithmetic intensity (estimated ops/byte)</text>
    </g>
   </g>
   <g id="matplotlib.axis_2">
    <g id="ytick_1">
     <g id="line2d_2">
      <path d="M 42.290313 149.645615 
L 332.450313 149.645615 
" clip-path="url(#pa9e02035d5)" style="fill: none; stroke: #cccccc; stroke-opacity: 0.35; stroke-width: 0.45; stroke-linecap: round"/>
     </g>
     <g id="text_5">
      <!-- $\mathdefault{10^{0}}$ -->
      <g style="fill: #262626" transform="translate(19.910313 152.68499)">
       <text>
        <tspan style="font: 8px 'DejaVu Sans'" x="0 5.089844" y="-0.78125">10</tspan>
        <tspan style="font: 5.6px 'DejaVu Sans'" x="10.25625" y="-3.84375">0</tspan>
       </text>
      </g>
     </g>
    </g>
    <g id="ytick_2">
     <g id="line2d_3">
      <path d="M 42.290313 70.534021 
L 332.450313 70.534021 
" clip-path="url(#pa9e02035d5)" style="fill: none; stroke: #cccccc; stroke-opacity: 0.35; stroke-width: 0.45; stroke-linecap: round"/>
     </g>
     <g id="text_6">
      <!-- $\mathdefault{10^{1}}$ -->
      <g style="fill: #262626" transform="translate(19.910313 73.573396)">
       <text>
        <tspan style="font: 8px 'DejaVu Sans'" x="0 5.089844" y="-0.8578125000000005">10</tspan>
        <tspan style="font: 5.6px 'DejaVu Sans'" x="10.25625" y="-3.9203125000000005">1</tspan>
       </text>
      </g>
     </g>
    </g>
    <g id="ytick_3"/>
    <g id="ytick_4"/>
    <g id="ytick_5"/>
    <g id="ytick_6"/>
    <g id="ytick_7"/>
    <g id="ytick_8"/>
    <g id="ytick_9"/>
    <g id="ytick_10"/>
    <g id="ytick_11"/>
    <g id="ytick_12"/>
    <g id="ytick_13"/>
    <g id="ytick_14"/>
    <g id="ytick_15"/>
    <g id="ytick_16"/>
    <g id="ytick_17"/>
    <g id="ytick_18"/>
    <g id="ytick_19"/>
    <g id="ytick_20"/>
    <g id="ytick_21"/>
    <g id="ytick_22"/>
    <g id="text_7">
     <text style="fill: #262626; font: 9px 'DejaVu Sans'; text-anchor: middle" x="14.038594" y="101.448" transform="rotate(-90 14.038594 101.448)">Effective throughput (GOPS)</text>
    </g>
   </g>
   <g id="PathCollection_1">
    <defs>
     <path id="C0_0_1090f81094" d="M 0 2.915476 
C 0.773193 2.915476 1.514823 2.608283 2.061553 2.061553 
C 2.608283 1.514823 2.915476 0.773193 2.915476 -0 
C 2.915476 -0.773193 2.608283 -1.514823 2.061553 -2.061553 
C 1.514823 -2.608283 0.773193 -2.915476 0 -2.915476 
C -0.773193 -2.915476 -1.514823 -2.608283 -2.061553 -2.061553 
C -2.608283 -1.514823 -2.915476 -0.773193 -2.915476 0 
C -2.915476 0.773193 -2.608283 1.514823 -2.061553 2.061553 
C -1.514823 2.608283 -0.773193 2.915476 0 2.915476 
z
"/>
    </defs>
    <g clip-path="url(#pa9e02035d5)">
     <use xlink:href="#C0_0_1090f81094" x="276.473397" y="164.345215" style="fill: #c44e52; stroke: #ffffff; stroke-width: 0.45"/>
    </g>
    <g clip-path="url(#pa9e02035d5)">
     <use xlink:href="#C0_0_1090f81094" x="257.234111" y="169.713699" style="fill: #c44e52; stroke: #ffffff; stroke-width: 0.45"/>
    </g>
    <g clip-path="url(#pa9e02035d5)">
     <use xlink:href="#C0_0_1090f81094" x="273.808881" y="161.798913" style="fill: #c44e52; stroke: #ffffff; stroke-width: 0.45"/>
    </g>
    <g clip-path="url(#pa9e02035d5)">
     <use xlink:href="#C0_0_1090f81094" x="238.725967" y="174.505404" style="fill: #c44e52; stroke: #ffffff; stroke-width: 0.45"/>
    </g>
    <g clip-path="url(#pa9e02035d5)">
     <use xlink:href="#C0_0_1090f81094" x="260.420665" y="166.253048" style="fill: #c44e52; stroke: #ffffff; stroke-width: 0.45"/>
    </g>
    <g clip-path="url(#pa9e02035d5)">
     <use xlink:href="#C0_0_1090f81094" x="272.43392" y="164.192469" style="fill: #c44e52; stroke: #ffffff; stroke-width: 0.45"/>
    </g>
    <g clip-path="url(#pa9e02035d5)">
     <use xlink:href="#C0_0_1090f81094" x="246.523953" y="170.40713" style="fill: #c44e52; stroke: #ffffff; stroke-width: 0.45"/>
    </g>
    <g clip-path="url(#pa9e02035d5)">
     <use xlink:href="#C0_0_1090f81094" x="270.049574" y="107.117921" style="fill: #8172b3; stroke: #ffffff; stroke-width: 0.45"/>
    </g>
    <g clip-path="url(#pa9e02035d5)">
     <use xlink:href="#C0_0_1090f81094" x="269.584402" y="107.311957" style="fill: #8172b3; stroke: #ffffff; stroke-width: 0.45"/>
    </g>
    <g clip-path="url(#pa9e02035d5)">
     <use xlink:href="#C0_0_1090f81094" x="262.164696" y="167.918944" style="fill: #c44e52; stroke: #ffffff; stroke-width: 0.45"/>
    </g>
    <g clip-path="url(#pa9e02035d5)">
     <use xlink:href="#C0_0_1090f81094" x="212.917263" y="180.046363" style="fill: #c44e52; stroke: #ffffff; stroke-width: 0.45"/>
    </g>
    <g clip-path="url(#pa9e02035d5)">
     <use xlink:href="#C0_0_1090f81094" x="268.205368" y="109.466272" style="fill: #8172b3; stroke: #ffffff; stroke-width: 0.45"/>
    </g>
    <g clip-path="url(#pa9e02035d5)">
     <use xlink:href="#C0_0_1090f81094" x="225.286931" y="175.3763" style="fill: #c44e52; stroke: #ffffff; stroke-width: 0.45"/>
    </g>
    <g clip-path="url(#pa9e02035d5)">
     <use xlink:href="#C0_0_1090f81094" x="251.051097" y="171.432157" style="fill: #c44e52; stroke: #ffffff; stroke-width: 0.45"/>
    </g>
    <g clip-path="url(#pa9e02035d5)">
     <use xlink:href="#C0_0_1090f81094" x="233.119929" y="169.122744" style="fill: #c44e52; stroke: #ffffff; stroke-width: 0.45"/>
    </g>
    <g clip-path="url(#pa9e02035d5)">
     <use xlink:href="#C0_0_1090f81094" x="265.960437" y="117.206885" style="fill: #8172b3; stroke: #ffffff; stroke-width: 0.45"/>
    </g>
    <g clip-path="url(#pa9e02035d5)">
     <use xlink:href="#C0_0_1090f81094" x="233.119929" y="176.228109" style="fill: #c44e52; stroke: #ffffff; stroke-width: 0.45"/>
    </g>
    <g clip-path="url(#pa9e02035d5)">
     <use xlink:href="#C0_0_1090f81094" x="261.660513" y="121.67118" style="fill: #8172b3; stroke: #ffffff; stroke-width: 0.45"/>
    </g>
    <g clip-path="url(#pa9e02035d5)">
     <use xlink:href="#C0_0_1090f81094" x="174.114122" y="187.128" style="fill: #c44e52; stroke: #ffffff; stroke-width: 0.45"/>
    </g>
    <g clip-path="url(#pa9e02035d5)">
     <use xlink:href="#C0_0_1090f81094" x="188.57669" y="182.302141" style="fill: #c44e52; stroke: #ffffff; stroke-width: 0.45"/>
    </g>
    <g clip-path="url(#pa9e02035d5)">
     <use xlink:href="#C0_0_1090f81094" x="250.09742" y="131.313816" style="fill: #8172b3; stroke: #ffffff; stroke-width: 0.45"/>
    </g>
    <g clip-path="url(#pa9e02035d5)">
     <use xlink:href="#C0_0_1090f81094" x="199.155163" y="182.976615" style="fill: #c44e52; stroke: #ffffff; stroke-width: 0.45"/>
    </g>
    <g clip-path="url(#pa9e02035d5)">
     <use xlink:href="#C0_0_1090f81094" x="107.847469" y="121.359598" style="fill: #4c72b0; stroke: #ffffff; stroke-width: 0.45"/>
    </g>
    <g clip-path="url(#pa9e02035d5)">
     <use xlink:href="#C0_0_1090f81094" x="107.847469" y="121.618688" style="fill: #4c72b0; stroke: #ffffff; stroke-width: 0.45"/>
    </g>
    <g clip-path="url(#pa9e02035d5)">
     <use xlink:href="#C0_0_1090f81094" x="107.847469" y="121.756774" style="fill: #4c72b0; stroke: #ffffff; stroke-width: 0.45"/>
    </g>
    <g clip-path="url(#pa9e02035d5)">
     <use xlink:href="#C0_0_1090f81094" x="107.847469" y="122.28697" style="fill: #4c72b0; stroke: #ffffff; stroke-width: 0.45"/>
    </g>
    <g clip-path="url(#pa9e02035d5)">
     <use xlink:href="#C0_0_1090f81094" x="107.847469" y="122.518698" style="fill: #4c72b0; stroke: #ffffff; stroke-width: 0.45"/>
    </g>
    <g clip-path="url(#pa9e02035d5)">
     <use xlink:href="#C0_0_1090f81094" x="107.847469" y="122.570682" style="fill: #4c72b0; stroke: #ffffff; stroke-width: 0.45"/>
    </g>
    <g clip-path="url(#pa9e02035d5)">
     <use xlink:href="#C0_0_1090f81094" x="107.847469" y="122.688533" style="fill: #4c72b0; stroke: #ffffff; stroke-width: 0.45"/>
    </g>
    <g clip-path="url(#pa9e02035d5)">
     <use xlink:href="#C0_0_1090f81094" x="107.847469" y="123.16445" style="fill: #4c72b0; stroke: #ffffff; stroke-width: 0.45"/>
    </g>
    <g clip-path="url(#pa9e02035d5)">
     <use xlink:href="#C0_0_1090f81094" x="107.847469" y="124.400503" style="fill: #4c72b0; stroke: #ffffff; stroke-width: 0.45"/>
    </g>
    <g clip-path="url(#pa9e02035d5)">
     <use xlink:href="#C0_0_1090f81094" x="234.340947" y="142.315022" style="fill: #8172b3; stroke: #ffffff; stroke-width: 0.45"/>
    </g>
    <g clip-path="url(#pa9e02035d5)">
     <use xlink:href="#C0_0_1090f81094" x="107.847469" y="125.399199" style="fill: #4c72b0; stroke: #ffffff; stroke-width: 0.45"/>
    </g>
    <g clip-path="url(#pa9e02035d5)">
     <use xlink:href="#C0_0_1090f81094" x="107.847469" y="127.950609" style="fill: #4c72b0; stroke: #ffffff; stroke-width: 0.45"/>
    </g>
    <g clip-path="url(#pa9e02035d5)">
     <use xlink:href="#C0_0_1090f81094" x="107.847469" y="133.380917" style="fill: #4c72b0; stroke: #ffffff; stroke-width: 0.45"/>
    </g>
    <g clip-path="url(#pa9e02035d5)">
     <use xlink:href="#C0_0_1090f81094" x="270.049574" y="169.87522" style="fill: #55a868; stroke: #ffffff; stroke-width: 0.45"/>
    </g>
    <g clip-path="url(#pa9e02035d5)">
     <use xlink:href="#C0_0_1090f81094" x="269.584402" y="170.551856" style="fill: #55a868; stroke: #ffffff; stroke-width: 0.45"/>
    </g>
    <g clip-path="url(#pa9e02035d5)">
     <use xlink:href="#C0_0_1090f81094" x="268.205368" y="171.005752" style="fill: #55a868; stroke: #ffffff; stroke-width: 0.45"/>
    </g>
    <g clip-path="url(#pa9e02035d5)">
     <use xlink:href="#C0_0_1090f81094" x="265.960437" y="171.726685" style="fill: #55a868; stroke: #ffffff; stroke-width: 0.45"/>
    </g>
    <g clip-path="url(#pa9e02035d5)">
     <use xlink:href="#C0_0_1090f81094" x="107.847469" y="149.403545" style="fill: #4c72b0; stroke: #ffffff; stroke-width: 0.45"/>
    </g>
    <g clip-path="url(#pa9e02035d5)">
     <use xlink:href="#C0_0_1090f81094" x="261.660513" y="173.03955" style="fill: #55a868; stroke: #ffffff; stroke-width: 0.45"/>
    </g>
    <g clip-path="url(#pa9e02035d5)">
     <use xlink:href="#C0_0_1090f81094" x="250.09742" y="175.782135" style="fill: #55a868; stroke: #ffffff; stroke-width: 0.45"/>
    </g>
    <g clip-path="url(#pa9e02035d5)">
     <use xlink:href="#C0_0_1090f81094" x="234.340947" y="178.912432" style="fill: #55a868; stroke: #ffffff; stroke-width: 0.45"/>
    </g>
   </g>
   <g id="line2d_4"/>
   <g id="line2d_5"/>
   <g id="line2d_6"/>
   <g id="line2d_7"/>
   <g id="line2d_8">
    <path d="M 55.479403 102.015689 
L 58.143866 101.625611 
L 60.808329 101.235533 
L 63.472792 100.845454 
L 66.137255 100.455376 
L 68.801717 100.065297 
L 71.46618 99.675219 
L 74.130643 99.28514 
L 76.795106 98.895062 
L 79.459569 98.504984 
L 82.124032 98.114905 
L 84.788494 97.724827 
L 87.452957 97.334748 
L 90.11742 96.94467 
L 92.781883 96.554592 
L 95.446346 96.164513 
L 98.110808 95.774435 
L 100.775271 95.384356 
L 103.439734 94.994278 
L 106.104197 94.604199 
L 108.76866 94.214121 
L 111.433122 93.824043 
L 114.097585 93.433964 
L 116.762048 93.043886 
L 119.426511 92.653807 
L 122.090974 92.263729 
L 124.755436 91.873651 
L 127.419899 91.483572 
L 130.084362 91.093494 
L 132.748825 90.703415 
L 135.413288 90.313337 
L 138.077751 89.923258 
L 140.742213 89.53318 
L 143.406676 89.143102 
L 146.071139 88.753023 
L 148.735602 88.362945 
L 151.400065 87.972866 
L 154.064527 87.582788 
L 156.72899 87.192709 
L 159.393453 86.802631 
L 162.057916 86.412553 
L 164.722379 86.022474 
L 167.386841 85.632396 
L 170.051304 85.242317 
L 172.715767 84.852239 
L 175.38023 84.462161 
L 178.044693 84.072082 
L 180.709155 83.682004 
L 183.373618 83.291925 
L 186.038081 82.901847 
L 188.702544 82.511768 
L 191.367007 82.12169 
L 194.03147 81.731612 
L 196.695932 81.341533 
L 199.360395 80.951455 
L 202.024858 80.561376 
L 204.689321 80.171298 
L 207.353784 79.78122 
L 210.018246 79.391141 
L 212.682709 79.001063 
L 215.347172 78.610984 
L 218.011635 78.220906 
L 220.676098 77.830827 
L 223.34056 77.440749 
L 226.005023 77.050671 
L 228.669486 76.660592 
L 231.333949 76.270514 
L 233.998412 75.880435 
L 236.662874 75.490357 
L 239.327337 75.100279 
L 241.9918 74.7102 
L 244.656263 74.320122 
L 247.320726 73.930043 
L 249.985189 73.539965 
L 252.649651 73.149886 
L 255.314114 72.759808 
L 257.978577 72.36973 
L 260.64304 71.979651 
L 263.307503 71.589573 
L 265.971965 71.199494 
L 268.636428 70.809416 
L 271.300891 70.419337 
L 273.965354 70.029259 
L 276.629817 69.639181 
L 279.294279 69.249102 
L 281.958742 68.859024 
L 284.623205 68.468945 
L 287.287668 68.078867 
L 289.952131 67.688789 
L 292.616593 67.29871 
L 295.281056 66.908632 
L 297.945519 66.518553 
L 300.609982 66.128475 
L 303.274445 65.738396 
L 305.938908 65.348318 
L 308.60337 64.95824 
L 311.267833 64.568161 
L 313.932296 64.178083 
L 316.596759 63.788004 
L 319.261222 63.397926 
" clip-path="url(#pa9e02035d5)" style="fill: none; stroke-dasharray: 2.775,1.2; stroke-dashoffset: 0; stroke: #737373; stroke-opacity: 0.75; stroke-width: 0.75"/>
   </g>
   <g id="line2d_9">
    <path d="M 55.479403 78.200726 
L 58.143866 77.810648 
L 60.808329 77.42057 
L 63.472792 77.030491 
L 66.137255 76.640413 
L 68.801717 76.250334 
L 71.46618 75.860256 
L 74.130643 75.470178 
L 76.795106 75.080099 
L 79.459569 74.690021 
L 82.124032 74.299942 
L 84.788494 73.909864 
L 87.452957 73.519785 
L 90.11742 73.129707 
L 92.781883 72.739629 
L 95.446346 72.34955 
L 98.110808 71.959472 
L 100.775271 71.569393 
L 103.439734 71.179315 
L 106.104197 70.789236 
L 108.76866 70.399158 
L 111.433122 70.00908 
L 114.097585 69.619001 
L 116.762048 69.228923 
L 119.426511 68.838844 
L 122.090974 68.448766 
L 124.755436 68.058688 
L 127.419899 67.668609 
L 130.084362 67.278531 
L 132.748825 66.888452 
L 135.413288 66.498374 
L 138.077751 66.108295 
L 140.742213 65.718217 
L 143.406676 65.328139 
L 146.071139 64.93806 
L 148.735602 64.547982 
L 151.400065 64.157903 
L 154.064527 63.767825 
L 156.72899 63.377747 
L 159.393453 62.987668 
L 162.057916 62.59759 
L 164.722379 62.207511 
L 167.386841 61.817433 
L 170.051304 61.427354 
L 172.715767 61.037276 
L 175.38023 60.647198 
L 178.044693 60.257119 
L 180.709155 59.867041 
L 183.373618 59.476962 
L 186.038081 59.086884 
L 188.702544 58.696805 
L 191.367007 58.306727 
L 194.03147 57.916649 
L 196.695932 57.52657 
L 199.360395 57.136492 
L 202.024858 56.746413 
L 204.689321 56.356335 
L 207.353784 55.966257 
L 210.018246 55.576178 
L 212.682709 55.1861 
L 215.347172 54.796021 
L 218.011635 54.405943 
L 220.676098 54.015864 
L 223.34056 53.625786 
L 226.005023 53.235708 
L 228.669486 52.845629 
L 231.333949 52.455551 
L 233.998412 52.065472 
L 236.662874 51.675394 
L 239.327337 51.285316 
L 241.9918 50.895237 
L 244.656263 50.505159 
L 247.320726 50.11508 
L 249.985189 49.725002 
L 252.649651 49.334923 
L 255.314114 48.944845 
L 257.978577 48.554767 
L 260.64304 48.164688 
L 263.307503 47.77461 
L 265.971965 47.384531 
L 268.636428 46.994453 
L 271.300891 46.604375 
L 273.965354 46.214296 
L 276.629817 45.824218 
L 279.294279 45.434139 
L 281.958742 45.044061 
L 284.623205 44.653982 
L 287.287668 44.263904 
L 289.952131 43.873826 
L 292.616593 43.483747 
L 295.281056 43.093669 
L 297.945519 42.70359 
L 300.609982 42.313512 
L 303.274445 41.923433 
L 305.938908 41.533355 
L 308.60337 41.143277 
L 311.267833 40.753198 
L 313.932296 40.36312 
L 316.596759 39.973041 
L 319.261222 39.582963 
" clip-path="url(#pa9e02035d5)" style="fill: none; stroke-dasharray: 2.775,1.2; stroke-dashoffset: 0; stroke: #737373; stroke-opacity: 0.75; stroke-width: 0.75"/>
   </g>
   <g id="line2d_10">
    <path d="M 55.479403 54.385763 
L 58.143866 53.995685 
L 60.808329 53.605607 
L 63.472792 53.215528 
L 66.137255 52.82545 
L 68.801717 52.435371 
L 71.46618 52.045293 
L 74.130643 51.655215 
L 76.795106 51.265136 
L 79.459569 50.875058 
L 82.124032 50.484979 
L 84.788494 50.094901 
L 87.452957 49.704822 
L 90.11742 49.314744 
L 92.781883 48.924666 
L 95.446346 48.534587 
L 98.110808 48.144509 
L 100.775271 47.75443 
L 103.439734 47.364352 
L 106.104197 46.974274 
L 108.76866 46.584195 
L 111.433122 46.194117 
L 114.097585 45.804038 
L 116.762048 45.41396 
L 119.426511 45.023881 
L 122.090974 44.633803 
L 124.755436 44.243725 
L 127.419899 43.853646 
L 130.084362 43.463568 
L 132.748825 43.073489 
L 135.413288 42.683411 
L 138.077751 42.293332 
L 140.742213 41.903254 
L 143.406676 41.513176 
L 146.071139 41.123097 
L 148.735602 40.733019 
L 151.400065 40.34294 
L 154.064527 39.952862 
L 156.72899 39.562784 
L 159.393453 39.172705 
L 162.057916 38.782627 
L 164.722379 38.392548 
L 167.386841 38.00247 
L 170.051304 37.612391 
L 172.715767 37.222313 
L 175.38023 36.832235 
L 178.044693 36.442156 
L 180.709155 36.052078 
L 183.373618 35.661999 
L 186.038081 35.271921 
L 188.702544 34.881843 
L 191.367007 34.491764 
L 194.03147 34.101686 
L 196.695932 33.711607 
L 199.360395 33.321529 
L 202.024858 32.93145 
L 204.689321 32.541372 
L 207.353784 32.151294 
L 210.018246 31.761215 
L 212.682709 31.371137 
L 215.347172 30.981058 
L 218.011635 30.59098 
L 220.676098 30.200901 
L 223.34056 29.810823 
L 226.005023 29.420745 
L 228.669486 29.030666 
L 231.333949 28.640588 
L 233.998412 28.250509 
L 236.662874 27.860431 
L 239.327337 27.470353 
L 241.9918 27.080274 
L 244.656263 26.690196 
L 247.320726 26.300117 
L 249.985189 25.910039 
L 252.649651 25.51996 
L 255.314114 25.129882 
L 257.978577 24.739804 
L 260.64304 24.349725 
L 263.307503 23.959647 
L 265.971965 23.569568 
L 268.636428 23.17949 
L 271.300891 22.789412 
L 273.965354 22.399333 
L 276.629817 22.009255 
L 279.294279 21.619176 
L 281.958742 21.229098 
L 284.623205 20.839019 
L 287.287668 20.448941 
L 289.952131 20.058863 
L 292.616593 19.668784 
L 295.281056 19.278706 
L 297.945519 18.888627 
L 300.609982 18.498549 
L 303.274445 18.108471 
L 305.938908 17.718392 
L 308.60337 17.328314 
L 311.267833 16.938235 
L 313.932296 16.548157 
L 316.596759 16.158078 
L 319.261222 15.768 
" clip-path="url(#pa9e02035d5)" style="fill: none; stroke-dasharray: 2.775,1.2; stroke-dashoffset: 0; stroke: #737373; stroke-opacity: 0.75; stroke-width: 0.75"/>
   </g>
   <g id="patch_3">
    <path d="M 42.290313 195.696 
L 42.290313 7.2 
" style="fill: none; stroke: #cccccc; stroke-width: 0.8; stroke-linejoin: miter; stroke-linecap: square"/>
   </g>
   <g id="patch_4">
    <path d="M 42.290313 195.696 
L 332.450313 195.696 
" style="fill: none; stroke: #cccccc; stroke-width: 0.8; stroke-linejoin: miter; stroke-linecap: square"/>
   </g>
   <g id="text_8">
    <text style="fill: #595959; font: 7px 'DejaVu Sans'; text-anchor: end" x="319.261222" y="65.329488" transform="rotate(-0 319.261222 65.329488)">10 GB/s</text>
   </g>
   <g id="text_9">
    <text style="fill: #595959; font: 7px 'DejaVu Sans'; text-anchor: end" x="319.261222" y="41.514525" transform="rotate(-0 319.261222 41.514525)">20 GB/s</text>
   </g>
   <g id="text_10">
    <text style="fill: #595959; font: 7px 'DejaVu Sans'; text-anchor: end" x="319.261222" y="17.699563" transform="rotate(-0 319.261222 17.699563)">40 GB/s</text>
   </g>
   <g id="legend_1">
    <g id="line2d_11">
     <defs>
      <path id="m51762bd3d9" d="M 0 2.915476 
C 0.773193 2.915476 1.514823 2.608283 2.061553 2.061553 
C 2.608283 1.514823 2.915476 0.773193 2.915476 0 
C 2.915476 -0.773193 2.608283 -1.514823 2.061553 -2.061553 
C 1.514823 -2.608283 0.773193 -2.915476 0 -2.915476 
C -0.773193 -2.915476 -1.514823 -2.608283 -2.061553 -2.061553 
C -2.608283 -1.514823 -2.915476 -0.773193 -2.915476 0 
C -2.915476 0.773193 -2.608283 1.514823 -2.061553 2.061553 
C -1.514823 2.608283 -0.773193 2.915476 0 2.915476 
z
" style="stroke: #ffffff; stroke-width: 0.45"/>
     </defs>
     <g>
      <use xlink:href="#m51762bd3d9" x="57.490313" y="148.80475" style="fill: #c44e52; stroke: #ffffff; stroke-width: 0.45"/>
     </g>
    </g>
    <g id="text_11">
     <text style="fill: #262626; font: 8px 'DejaVu Sans'; text-anchor: start" x="71.890313" y="151.60475" transform="rotate(-0 71.890313 151.60475)">PQ-ADC</text>
    </g>
    <g id="line2d_12">
     <defs>
      <path id="m9381955c9b" d="M 0 2.915476 
C 0.773193 2.915476 1.514823 2.608283 2.061553 2.061553 
C 2.608283 1.514823 2.915476 0.773193 2.915476 0 
C 2.915476 -0.773193 2.608283 -1.514823 2.061553 -2.061553 
C 1.514823 -2.608283 0.773193 -2.915476 0 -2.915476 
C -0.773193 -2.915476 -1.514823 -2.608283 -2.061553 -2.061553 
C -2.608283 -1.514823 -2.915476 -0.773193 -2.915476 0 
C -2.915476 0.773193 -2.608283 1.514823 -2.061553 2.061553 
C -1.514823 2.608283 -0.773193 2.915476 0 2.915476 
z
" style="stroke: #ffffff; stroke-width: 0.45"/>
     </defs>
     <g>
      <use xlink:href="#m9381955c9b" x="57.490313" y="160.54725" style="fill: #8172b3; stroke: #ffffff; stroke-width: 0.45"/>
     </g>
    </g>
    <g id="text_12">
     <text style="fill: #262626; font: 8px 'DejaVu Sans'; text-anchor: start" x="71.890313" y="163.34725" transform="rotate(-0 71.890313 163.34725)">SQ8-U8SIMD</text>
    </g>
    <g id="line2d_13">
     <defs>
      <path id="mfd60ad4bf7" d="M 0 2.915476 
C 0.773193 2.915476 1.514823 2.608283 2.061553 2.061553 
C 2.608283 1.514823 2.915476 0.773193 2.915476 0 
C 2.915476 -0.773193 2.608283 -1.514823 2.061553 -2.061553 
C 1.514823 -2.608283 0.773193 -2.915476 0 -2.915476 
C -0.773193 -2.915476 -1.514823 -2.608283 -2.061553 -2.061553 
C -2.608283 -1.514823 -2.915476 -0.773193 -2.915476 0 
C -2.915476 0.773193 -2.608283 1.514823 -2.061553 2.061553 
C -1.514823 2.608283 -0.773193 2.915476 0 2.915476 
z
" style="stroke: #ffffff; stroke-width: 0.45"/>
     </defs>
     <g>
      <use xlink:href="#mfd60ad4bf7" x="57.490313" y="172.28975" style="fill: #4c72b0; stroke: #ffffff; stroke-width: 0.45"/>
     </g>
    </g>
    <g id="text_13">
     <text style="fill: #262626; font: 8px 'DejaVu Sans'; text-anchor: start" x="71.890313" y="175.08975" transform="rotate(-0 71.890313 175.08975)">Flat</text>
    </g>
    <g id="line2d_14">
     <defs>
      <path id="mf9e2b49ff0" d="M 0 2.915476 
C 0.773193 2.915476 1.514823 2.608283 2.061553 2.061553 
C 2.608283 1.514823 2.915476 0.773193 2.915476 0 
C 2.915476 -0.773193 2.608283 -1.514823 2.061553 -2.061553 
C 1.514823 -2.608283 0.773193 -2.915476 0 -2.915476 
C -0.773193 -2.915476 -1.514823 -2.608283 -2.061553 -2.061553 
C -2.608283 -1.514823 -2.915476 -0.773193 -2.915476 0 
C -2.915476 0.773193 -2.608283 1.514823 -2.061553 2.061553 
C -1.514823 2.608283 -0.773193 2.915476 0 2.915476 
z
" style="stroke: #ffffff; stroke-width: 0.45"/>
     </defs>
     <g>
      <use xlink:href="#mf9e2b49ff0" x="57.490313" y="184.03225" style="fill: #55a868; stroke: #ffffff; stroke-width: 0.45"/>
     </g>
    </g>
    <g id="text_14">
     <text style="fill: #262626; font: 8px 'DejaVu Sans'; text-anchor: start" x="71.890313" y="186.83225" transform="rotate(-0 71.890313 186.83225)">SQ8-LUT</text>
    </g>
   </g>
  </g>
 </g>
 <defs>
  <clipPath id="pa9e02035d5">
   <rect x="42.290313" y="7.2" width="290.16" height="188.496"/>
  </clipPath>
 </defs>
</svg>
