<?xml version="1.0" encoding="utf-8" standalone="no"?>
<!DOCTYPE svg PUBLIC "-//W3C//DTD SVG 1.1//EN"
  "http://www.w3.org/Graphics/SVG/1.1/DTD/svg11.dtd">
<svg xmlns:xlink="http://www.w3.org/1999/xlink" width="441.64125pt" height="259.368812pt" viewBox="0 0 441.64125 259.368812" xmlns="http://www.w3.org/2000/svg" version="1.1">
 <metadata>
  <rdf:RDF xmlns:dc="http://purl.org/dc/elements/1.1/" xmlns:cc="http://creativecommons.org/ns#" xmlns:rdf="http://www.w3.org/1999/02/22-rdf-syntax-ns#">
   <cc:Work>
    <dc:type rdf:resource="http://purl.org/dc/dcmitype/StillImage"/>
    <dc:date>2026-05-07T13:55:38.603539</dc:date>
    <dc:format>image/svg+xml</dc:format>
    <dc:creator>
     <cc:Agent>
      <dc:title>Matplotlib v3.9.4, https://matplotlib.org/</dc:title>
     </cc:Agent>
    </dc:creator>
   </cc:Work>
  </rdf:RDF>
 </metadata>
 <defs>
  <style type="text/css">*{stroke-linejoin: round; stroke-linecap: butt}</style>
 </defs>
 <g id="figure_1">
  <g id="patch_1">
   <path d="M 0 259.368812 
L 441.64125 259.368812 
L 441.64125 0 
L 0 0 
z
" style="fill: #ffffff"/>
  </g>
  <g id="axes_1">
   <g id="patch_2">
    <path d="M 71.74125 223.416 
L 434.44125 223.416 
L 434.44125 7.2 
L 71.74125 7.2 
z
" style="fill: #ffffff"/>
   </g>
   <g id="matplotlib.axis_1">
    <g id="xtick_1">
     <g id="line2d_1">
      <path d="M 71.74125 223.416 
L 71.74125 7.2 
" clip-path="url(#p1521b70bc6)" style="fill: none; stroke: #cccccc; stroke-opacity: 0.35; stroke-width: 0.45; stroke-linecap: round"/>
     </g>
     <g id="text_1">
      <text style="fill: #262626; font: 8px 'DejaVu Sans'; text-anchor: middle" x="71.74125" y="237.79475" transform="rotate(-0 71.74125 237.79475)">0</text>
     </g>
    </g>
    <g id="xtick_2">
     <g id="line2d_2">
      <path d="M 135.704766 223.416 
L 135.704766 7.2 
" clip-path="url(#p1521b70bc6)" style="fill: none; stroke: #cccccc; stroke-opacity: 0.35; stroke-width: 0.45; stroke-linecap: round"/>
     </g>
     <g id="text_2">
      <text style="fill: #262626; font: 8px 'DejaVu Sans'; text-anchor: middle" x="135.704766" y="237.79475" transform="rotate(-0 135.704766 237.79475)">5</text>
     </g>
    </g>
    <g id="xtick_3">
     <g id="line2d_3">
      <path d="M 199.668282 223.416 
L 199.668282 7.2 
" clip-path="url(#p1521b70bc6)" style="fill: none; stroke: #cccccc; stroke-opacity: 0.35; stroke-width: 0.45; stroke-linecap: round"/>
     </g>
     <g id="text_3">
      <text style="fill: #262626; font: 8px 'DejaVu Sans'; text-anchor: middle" x="199.668282" y="237.79475" transform="rotate(-0 199.668282 237.79475)">10</text>
     </g>
    </g>
    <g id="xtick_4">
     <g id="line2d_4">
      <path d="M 263.631798 223.416 
L 263.631798 7.2 
" clip-path="url(#p1521b70bc6)" style="fill: none; stroke: #cccccc; stroke-opacity: 0.35; stroke-width: 0.45; stroke-linecap: round"/>
     </g>
     <g id="text_4">
      <text style="fill: #262626; font: 8px 'DejaVu Sans'; text-anchor: middle" x="263.631798" y="237.79475" transform="rotate(-0 263.631798 237.79475)">15</text>
     </g>
    </g>
    <g id="xtick_5">
     <g id="line2d_5">
      <path d="M 327.595314 223.416 
L 327.595314 7.2 
" clip-path="url(#p1521b70bc6)" style="fill: none; stroke: #cccccc; stroke-opacity: 0.35; stroke-width: 0.45; stroke-linecap: round"/>
     </g>
     <g id="text_5">
      <text style="fill: #262626; font: 8px 'DejaVu Sans'; text-anchor: middle" x="327.595314" y="237.79475" transform="rotate(-0 327.595314 237.79475)">20</text>
     </g>
    </g>
    <g id="xtick_6">
     <g id="line2d_6">
      <path d="M 391.55883 223.416 
L 391.55883 7.2 
" clip-path="url(#p1521b70bc6)" style="fill: none; stroke: #cccccc; stroke-opacity: 0.35; stroke-width: 0.45; stroke-linecap: round"/>
     </g>
     <g id="text_6">
      <text style="fill: #262626; font: 8px 'DejaVu Sans'; text-anchor: middle" x="391.55883" y="237.79475" transform="rotate(-0 391.55883 237.79475)">25</text>
     </g>
    </g>
    <g id="text_7">
     <text style="fill: #262626; font: 9px 'DejaVu Sans'; text-anchor: middle" x="253.09125" y="250.297094" transform="rotate(-0 253.09125 250.297094)">Latency per query (ms)</text>
    </g>
   </g>
   <g id="matplotlib.axis_2">
    <g id="ytick_1">
     <g id="line2d_7">
      <path d="M 71.74125 207.890609 
L 434.44125 207.890609 
" clip-path="url(#p1521b70bc6)" style="fill: none; stroke: #cccccc; stroke-opacity: 0.35; stroke-width: 0.45; stroke-linecap: round"/>
     </g>
     <g id="text_8">
      <text style="fill: #262626; font: 8px 'DejaVu Sans'; text-anchor: end" x="63.44125" y="210.929984" transform="rotate(-0 63.44125 210.929984)">SQ8 p=10000</text>
     </g>
    </g>
    <g id="ytick_2">
     <g id="line2d_8">
      <path d="M 71.74125 193.64713 
L 434.44125 193.64713 
" clip-path="url(#p1521b70bc6)" style="fill: none; stroke: #cccccc; stroke-opacity: 0.35; stroke-width: 0.45; stroke-linecap: round"/>
     </g>
     <g id="text_9">
      <text style="fill: #262626; font: 8px 'DejaVu Sans'; text-anchor: end" x="63.44125" y="196.686505" transform="rotate(-0 63.44125 196.686505)">SQ8 p=5000</text>
     </g>
    </g>
    <g id="ytick_3">
     <g id="line2d_9">
      <path d="M 71.74125 179.403652 
L 434.44125 179.403652 
" clip-path="url(#p1521b70bc6)" style="fill: none; stroke: #cccccc; stroke-opacity: 0.35; stroke-width: 0.45; stroke-linecap: round"/>
     </g>
     <g id="text_10">
      <text style="fill: #262626; font: 8px 'DejaVu Sans'; text-anchor: end" x="63.44125" y="182.443027" transform="rotate(-0 63.44125 182.443027)">SQ8 p=2000</text>
     </g>
    </g>
    <g id="ytick_4">
     <g id="line2d_10">
      <path d="M 71.74125 165.160174 
L 434.44125 165.160174 
" clip-path="url(#p1521b70bc6)" style="fill: none; stroke: #cccccc; stroke-opacity: 0.35; stroke-width: 0.45; stroke-linecap: round"/>
     </g>
     <g id="text_11">
      <text style="fill: #262626; font: 8px 'DejaVu Sans'; text-anchor: end" x="63.44125" y="168.199549" transform="rotate(-0 63.44125 168.199549)">SQ8 p=1000</text>
     </g>
    </g>
    <g id="ytick_5">
     <g id="line2d_11">
      <path d="M 71.74125 150.916696 
L 434.44125 150.916696 
" clip-path="url(#p1521b70bc6)" style="fill: none; stroke: #cccccc; stroke-opacity: 0.35; stroke-width: 0.45; stroke-linecap: round"/>
     </g>
     <g id="text_12">
      <text style="fill: #262626; font: 8px 'DejaVu Sans'; text-anchor: end" x="63.44125" y="153.956071" transform="rotate(-0 63.44125 153.956071)">SQ8 p=500</text>
     </g>
    </g>
    <g id="ytick_6">
     <g id="line2d_12">
      <path d="M 71.74125 136.673217 
L 434.44125 136.673217 
" clip-path="url(#p1521b70bc6)" style="fill: none; stroke: #cccccc; stroke-opacity: 0.35; stroke-width: 0.45; stroke-linecap: round"/>
     </g>
     <g id="text_13">
      <text style="fill: #262626; font: 8px 'DejaVu Sans'; text-anchor: end" x="63.44125" y="139.712592" transform="rotate(-0 63.44125 139.712592)">SQ8 p=200</text>
     </g>
    </g>
    <g id="ytick_7">
     <g id="line2d_13">
      <path d="M 71.74125 122.429739 
L 434.44125 122.429739 
" clip-path="url(#p1521b70bc6)" style="fill: none; stroke: #cccccc; stroke-opacity: 0.35; stroke-width: 0.45; stroke-linecap: round"/>
     </g>
     <g id="text_14">
      <text style="fill: #262626; font: 8px 'DejaVu Sans'; text-anchor: end" x="63.44125" y="125.469114" transform="rotate(-0 63.44125 125.469114)">SQ8 p=100</text>
     </g>
    </g>
    <g id="ytick_8">
     <g id="line2d_14">
      <path d="M 71.74125 108.186261 
L 434.44125 108.186261 
" clip-path="url(#p1521b70bc6)" style="fill: none; stroke: #cccccc; stroke-opacity: 0.35; stroke-width: 0.45; stroke-linecap: round"/>
     </g>
     <g id="text_15">
      <text style="fill: #262626; font: 8px 'DejaVu Sans'; text-anchor: end" x="63.44125" y="111.225636" transform="rotate(-0 63.44125 111.225636)">M16, p=5000</text>
     </g>
    </g>
    <g id="ytick_9">
     <g id="line2d_15">
      <path d="M 71.74125 93.942783 
L 434.44125 93.942783 
" clip-path="url(#p1521b70bc6)" style="fill: none; stroke: #cccccc; stroke-opacity: 0.35; stroke-width: 0.45; stroke-linecap: round"/>
     </g>
     <g id="text_16">
      <text style="fill: #262626; font: 8px 'DejaVu Sans'; text-anchor: end" x="63.44125" y="96.982158" transform="rotate(-0 63.44125 96.982158)">M12, p=5000</text>
     </g>
    </g>
    <g id="ytick_10">
     <g id="line2d_16">
      <path d="M 71.74125 79.699304 
L 434.44125 79.699304 
" clip-path="url(#p1521b70bc6)" style="fill: none; stroke: #cccccc; stroke-opacity: 0.35; stroke-width: 0.45; stroke-linecap: round"/>
     </g>
     <g id="text_17">
      <text style="fill: #262626; font: 8px 'DejaVu Sans'; text-anchor: end" x="63.44125" y="82.738679" transform="rotate(-0 63.44125 82.738679)">M8, p=5000</text>
     </g>
    </g>
    <g id="ytick_11">
     <g id="line2d_17">
      <path d="M 71.74125 65.455826 
L 434.44125 65.455826 
" clip-path="url(#p1521b70bc6)" style="fill: none; stroke: #cccccc; stroke-opacity: 0.35; stroke-width: 0.45; stroke-linecap: round"/>
     </g>
     <g id="text_18">
      <text style="fill: #262626; font: 8px 'DejaVu Sans'; text-anchor: end" x="63.44125" y="68.495201" transform="rotate(-0 63.44125 68.495201)">M16, p=2000</text>
     </g>
    </g>
    <g id="ytick_12">
     <g id="line2d_18">
      <path d="M 71.74125 51.212348 
L 434.44125 51.212348 
" clip-path="url(#p1521b70bc6)" style="fill: none; stroke: #cccccc; stroke-opacity: 0.35; stroke-width: 0.45; stroke-linecap: round"/>
     </g>
     <g id="text_19">
      <text style="fill: #262626; font: 8px 'DejaVu Sans'; text-anchor: end" x="63.44125" y="54.251723" transform="rotate(-0 63.44125 54.251723)">M16, p=1000</text>
     </g>
    </g>
    <g id="ytick_13">
     <g id="line2d_19">
      <path d="M 71.74125 36.96887 
L 434.44125 36.96887 
" clip-path="url(#p1521b70bc6)" style="fill: none; stroke: #cccccc; stroke-opacity: 0.35; stroke-width: 0.45; stroke-linecap: round"/>
     </g>
     <g id="text_20">
      <text style="fill: #262626; font: 8px 'DejaVu Sans'; text-anchor: end" x="63.44125" y="40.008245" transform="rotate(-0 63.44125 40.008245)">M12, p=2000</text>
     </g>
    </g>
    <g id="ytick_14">
     <g id="line2d_20">
      <path d="M 71.74125 22.725391 
L 434.44125 22.725391 
" clip-path="url(#p1521b70bc6)" style="fill: none; stroke: #cccccc; stroke-opacity: 0.35; stroke-width: 0.45; stroke-linecap: round"/>
     </g>
     <g id="text_21">
      <text style="fill: #262626; font: 8px 'DejaVu Sans'; text-anchor: end" x="63.44125" y="25.764766" transform="rotate(-0 63.44125 25.764766)">M16, p=500</text>
     </g>
    </g>
   </g>
   <g id="patch_3">
    <path d="M 71.74125 213.588 
L 358.443638 213.588 
L 358.443638 202.193217 
L 71.74125 202.193217 
z
" clip-path="url(#p1521b70bc6)" style="fill: #4c72b0; stroke: #ffffff; stroke-width: 0.8; stroke-linejoin: miter"/>
   </g>
   <g id="patch_4">
    <path d="M 71.74125 199.344522 
L 330.747436 199.344522 
L 330.747436 187.949739 
L 71.74125 187.949739 
z
" clip-path="url(#p1521b70bc6)" style="fill: #4c72b0; stroke: #ffffff; stroke-width: 0.8; stroke-linejoin: miter"/>
   </g>
   <g id="patch_5">
    <path d="M 71.74125 185.101043 
L 311.082492 185.101043 
L 311.082492 173.706261 
L 71.74125 173.706261 
z
" clip-path="url(#p1521b70bc6)" style="fill: #4c72b0; stroke: #ffffff; stroke-width: 0.8; stroke-linejoin: miter"/>
   </g>
   <g id="patch_6">
    <path d="M 71.74125 170.857565 
L 303.422222 170.857565 
L 303.422222 159.462783 
L 71.74125 159.462783 
z
" clip-path="url(#p1521b70bc6)" style="fill: #4c72b0; stroke: #ffffff; stroke-width: 0.8; stroke-linejoin: miter"/>
   </g>
   <g id="patch_7">
    <path d="M 71.74125 156.614087 
L 299.494862 156.614087 
L 299.494862 145.219304 
L 71.74125 145.219304 
z
" clip-path="url(#p1521b70bc6)" style="fill: #4c72b0; stroke: #ffffff; stroke-width: 0.8; stroke-linejoin: miter"/>
   </g>
   <g id="patch_8">
    <path d="M 71.74125 142.370609 
L 297.020753 142.370609 
L 297.020753 130.975826 
L 71.74125 130.975826 
z
" clip-path="url(#p1521b70bc6)" style="fill: #4c72b0; stroke: #ffffff; stroke-width: 0.8; stroke-linejoin: miter"/>
   </g>
   <g id="patch_9">
    <path d="M 71.74125 128.12713 
L 292.804278 128.12713 
L 292.804278 116.732348 
L 71.74125 116.732348 
z
" clip-path="url(#p1521b70bc6)" style="fill: #4c72b0; stroke: #ffffff; stroke-width: 0.8; stroke-linejoin: miter"/>
   </g>
   <g id="patch_10">
    <path d="M 71.74125 113.883652 
L 133.248567 113.883652 
L 133.248567 102.48887 
L 71.74125 102.48887 
z
" clip-path="url(#p1521b70bc6)" style="fill: #4c72b0; stroke: #ffffff; stroke-width: 0.8; stroke-linejoin: miter"/>
   </g>
   <g id="patch_11">
    <path d="M 71.74125 99.640174 
L 122.047276 99.640174 
L 122.047276 88.245391 
L 71.74125 88.245391 
z
" clip-path="url(#p1521b70bc6)" style="fill: #4c72b0; stroke: #ffffff; stroke-width: 0.8; stroke-linejoin: miter"/>
   </g>
   <g id="patch_12">
    <path d="M 71.74125 85.396696 
L 115.382278 85.396696 
L 115.382278 74.001913 
L 71.74125 74.001913 
z
" clip-path="url(#p1521b70bc6)" style="fill: #4c72b0; stroke: #ffffff; stroke-width: 0.8; stroke-linejoin: miter"/>
   </g>
   <g id="patch_13">
    <path d="M 71.74125 71.153217 
L 117.403525 71.153217 
L 117.403525 59.758435 
L 71.74125 59.758435 
z
" clip-path="url(#p1521b70bc6)" style="fill: #4c72b0; stroke: #ffffff; stroke-width: 0.8; stroke-linejoin: miter"/>
   </g>
   <g id="patch_14">
    <path d="M 71.74125 56.909739 
L 110.822958 56.909739 
L 110.822958 45.514957 
L 71.74125 45.514957 
z
" clip-path="url(#p1521b70bc6)" style="fill: #4c72b0; stroke: #ffffff; stroke-width: 0.8; stroke-linejoin: miter"/>
   </g>
   <g id="patch_15">
    <path d="M 71.74125 42.666261 
L 107.351019 42.666261 
L 107.351019 31.271478 
L 71.74125 31.271478 
z
" clip-path="url(#p1521b70bc6)" style="fill: #4c72b0; stroke: #ffffff; stroke-width: 0.8; stroke-linejoin: miter"/>
   </g>
   <g id="patch_16">
    <path d="M 71.74125 28.422783 
L 107.079813 28.422783 
L 107.079813 17.028 
L 71.74125 17.028 
z
" clip-path="url(#p1521b70bc6)" style="fill: #4c72b0; stroke: #ffffff; stroke-width: 0.8; stroke-linejoin: miter"/>
   </g>
   <g id="patch_17">
    <path d="M 358.443638 213.588 
L 417.139119 213.588 
L 417.139119 202.193217 
L 358.443638 202.193217 
z
" clip-path="url(#p1521b70bc6)" style="fill: #c44e52; stroke: #ffffff; stroke-width: 0.8; stroke-linejoin: miter"/>
   </g>
   <g id="patch_18">
    <path d="M 330.747436 199.344522 
L 360.779586 199.344522 
L 360.779586 187.949739 
L 330.747436 187.949739 
z
" clip-path="url(#p1521b70bc6)" style="fill: #c44e52; stroke: #ffffff; stroke-width: 0.8; stroke-linejoin: miter"/>
   </g>
   <g id="patch_19">
    <path d="M 311.082492 185.101043 
L 324.049176 185.101043 
L 324.049176 173.706261 
L 311.082492 173.706261 
z
" clip-path="url(#p1521b70bc6)" style="fill: #c44e52; stroke: #ffffff; stroke-width: 0.8; stroke-linejoin: miter"/>
   </g>
   <g id="patch_20">
    <path d="M 303.422222 170.857565 
L 309.920915 170.857565 
L 309.920915 159.462783 
L 303.422222 159.462783 
z
" clip-path="url(#p1521b70bc6)" style="fill: #c44e52; stroke: #ffffff; stroke-width: 0.8; stroke-linejoin: miter"/>
   </g>
   <g id="patch_21">
    <path d="M 299.494862 156.614087 
L 302.685362 156.614087 
L 302.685362 145.219304 
L 299.494862 145.219304 
z
" clip-path="url(#p1521b70bc6)" style="fill: #c44e52; stroke: #ffffff; stroke-width: 0.8; stroke-linejoin: miter"/>
   </g>
   <g id="patch_22">
    <path d="M 297.020753 142.370609 
L 298.297465 142.370609 
L 298.297465 130.975826 
L 297.020753 130.975826 
z
" clip-path="url(#p1521b70bc6)" style="fill: #c44e52; stroke: #ffffff; stroke-width: 0.8; stroke-linejoin: miter"/>
   </g>
   <g id="patch_23">
    <path d="M 292.804278 128.12713 
L 293.441355 128.12713 
L 293.441355 116.732348 
L 292.804278 116.732348 
z
" clip-path="url(#p1521b70bc6)" style="fill: #c44e52; stroke: #ffffff; stroke-width: 0.8; stroke-linejoin: miter"/>
   </g>
   <g id="patch_24">
    <path d="M 133.248567 113.883652 
L 159.78575 113.883652 
L 159.78575 102.48887 
L 133.248567 102.48887 
z
" clip-path="url(#p1521b70bc6)" style="fill: #c44e52; stroke: #ffffff; stroke-width: 0.8; stroke-linejoin: miter"/>
   </g>
   <g id="patch_25">
    <path d="M 122.047276 99.640174 
L 144.828522 99.640174 
L 144.828522 88.245391 
L 122.047276 88.245391 
z
" clip-path="url(#p1521b70bc6)" style="fill: #c44e52; stroke: #ffffff; stroke-width: 0.8; stroke-linejoin: miter"/>
   </g>
   <g id="patch_26">
    <path d="M 115.382278 85.396696 
L 140.622281 85.396696 
L 140.622281 74.001913 
L 115.382278 74.001913 
z
" clip-path="url(#p1521b70bc6)" style="fill: #c44e52; stroke: #ffffff; stroke-width: 0.8; stroke-linejoin: miter"/>
   </g>
   <g id="patch_27">
    <path d="M 117.403525 71.153217 
L 128.108459 71.153217 
L 128.108459 59.758435 
L 117.403525 59.758435 
z
" clip-path="url(#p1521b70bc6)" style="fill: #c44e52; stroke: #ffffff; stroke-width: 0.8; stroke-linejoin: miter"/>
   </g>
   <g id="patch_28">
    <path d="M 110.822958 56.909739 
L 116.129372 56.909739 
L 116.129372 45.514957 
L 110.822958 45.514957 
z
" clip-path="url(#p1521b70bc6)" style="fill: #c44e52; stroke: #ffffff; stroke-width: 0.8; stroke-linejoin: miter"/>
   </g>
   <g id="patch_29">
    <path d="M 107.351019 42.666261 
L 115.906778 42.666261 
L 115.906778 31.271478 
L 107.351019 31.271478 
z
" clip-path="url(#p1521b70bc6)" style="fill: #c44e52; stroke: #ffffff; stroke-width: 0.8; stroke-linejoin: miter"/>
   </g>
   <g id="patch_30">
    <path d="M 107.079813 28.422783 
L 109.722786 28.422783 
L 109.722786 17.028 
L 107.079813 17.028 
z
" clip-path="url(#p1521b70bc6)" style="fill: #c44e52; stroke: #ffffff; stroke-width: 0.8; stroke-linejoin: miter"/>
   </g>
   <g id="patch_31">
    <path d="M 417.139119 213.588 
L 417.169821 213.588 
L 417.169821 202.193217 
L 417.139119 202.193217 
z
" clip-path="url(#p1521b70bc6)" style="fill: #bfbfbf; stroke: #ffffff; stroke-width: 0.8; stroke-linejoin: miter"/>
   </g>
   <g id="patch_32">
    <path d="M 360.779586 199.344522 
L 360.810288 199.344522 
L 360.810288 187.949739 
L 360.779586 187.949739 
z
" clip-path="url(#p1521b70bc6)" style="fill: #bfbfbf; stroke: #ffffff; stroke-width: 0.8; stroke-linejoin: miter"/>
   </g>
   <g id="patch_33">
    <path d="M 324.049176 185.101043 
L 324.074762 185.101043 
L 324.074762 173.706261 
L 324.049176 173.706261 
z
" clip-path="url(#p1521b70bc6)" style="fill: #bfbfbf; stroke: #ffffff; stroke-width: 0.8; stroke-linejoin: miter"/>
   </g>
   <g id="patch_34">
    <path d="M 309.920915 170.857565 
L 309.943942 170.857565 
L 309.943942 159.462783 
L 309.920915 159.462783 
z
" clip-path="url(#p1521b70bc6)" style="fill: #bfbfbf; stroke: #ffffff; stroke-width: 0.8; stroke-linejoin: miter"/>
   </g>
   <g id="patch_35">
    <path d="M 302.685362 156.614087 
L 302.710947 156.614087 
L 302.710947 145.219304 
L 302.685362 145.219304 
z
" clip-path="url(#p1521b70bc6)" style="fill: #bfbfbf; stroke: #ffffff; stroke-width: 0.8; stroke-linejoin: miter"/>
   </g>
   <g id="patch_36">
    <path d="M 298.297465 142.370609 
L 298.325609 142.370609 
L 298.325609 130.975826 
L 298.297465 130.975826 
z
" clip-path="url(#p1521b70bc6)" style="fill: #bfbfbf; stroke: #ffffff; stroke-width: 0.8; stroke-linejoin: miter"/>
   </g>
   <g id="patch_37">
    <path d="M 293.441355 128.12713 
L 293.464382 128.12713 
L 293.464382 116.732348 
L 293.441355 116.732348 
z
" clip-path="url(#p1521b70bc6)" style="fill: #bfbfbf; stroke: #ffffff; stroke-width: 0.8; stroke-linejoin: miter"/>
   </g>
   <g id="patch_38">
    <path d="M 159.78575 113.883652 
L 159.801102 113.883652 
L 159.801102 102.48887 
L 159.78575 102.48887 
z
" clip-path="url(#p1521b70bc6)" style="fill: #bfbfbf; stroke: #ffffff; stroke-width: 0.8; stroke-linejoin: miter"/>
   </g>
   <g id="patch_39">
    <path d="M 144.828522 99.640174 
L 144.851549 99.640174 
L 144.851549 88.245391 
L 144.828522 88.245391 
z
" clip-path="url(#p1521b70bc6)" style="fill: #bfbfbf; stroke: #ffffff; stroke-width: 0.8; stroke-linejoin: miter"/>
   </g>
   <g id="patch_40">
    <path d="M 140.622281 85.396696 
L 140.642749 85.396696 
L 140.642749 74.001913 
L 140.622281 74.001913 
z
" clip-path="url(#p1521b70bc6)" style="fill: #bfbfbf; stroke: #ffffff; stroke-width: 0.8; stroke-linejoin: miter"/>
   </g>
   <g id="patch_41">
    <path d="M 128.108459 71.153217 
L 128.12381 71.153217 
L 128.12381 59.758435 
L 128.108459 59.758435 
z
" clip-path="url(#p1521b70bc6)" style="fill: #bfbfbf; stroke: #ffffff; stroke-width: 0.8; stroke-linejoin: miter"/>
   </g>
   <g id="patch_42">
    <path d="M 116.129372 56.909739 
L 116.147281 56.909739 
L 116.147281 45.514957 
L 116.129372 45.514957 
z
" clip-path="url(#p1521b70bc6)" style="fill: #bfbfbf; stroke: #ffffff; stroke-width: 0.8; stroke-linejoin: miter"/>
   </g>
   <g id="patch_43">
    <path d="M 115.906778 42.666261 
L 115.92213 42.666261 
L 115.92213 31.271478 
L 115.906778 31.271478 
z
" clip-path="url(#p1521b70bc6)" style="fill: #bfbfbf; stroke: #ffffff; stroke-width: 0.8; stroke-linejoin: miter"/>
   </g>
   <g id="patch_44">
    <path d="M 109.722786 28.422783 
L 109.740696 28.422783 
L 109.740696 17.028 
L 109.722786 17.028 
z
" clip-path="url(#p1521b70bc6)" style="fill: #bfbfbf; stroke: #ffffff; stroke-width: 0.8; stroke-linejoin: miter"/>
   </g>
   <g id="patch_45">
    <path d="M 71.74125 223.416 
L 71.74125 7.2 
" style="fill: none; stroke: #cccccc; stroke-width: 0.8; stroke-linejoin: miter; stroke-linecap: square"/>
   </g>
   <g id="patch_46">
    <path d="M 71.74125 223.416 
L 434.44125 223.416 
" style="fill: none; stroke: #cccccc; stroke-width: 0.8; stroke-linejoin: miter; stroke-linecap: square"/>
   </g>
   <g id="legend_1">
    <g id="patch_47">
     <path d="M 208.2575 214.55225 
L 224.2575 214.55225 
L 224.2575 208.95225 
L 208.2575 208.95225 
z
" style="fill: #4c72b0; stroke: #ffffff; stroke-width: 0.8; stroke-linejoin: miter"/>
    </g>
    <g id="text_22">
     <text style="fill: #262626; font: 8px 'DejaVu Sans'; text-anchor: start" x="230.6575" y="214.55225" transform="rotate(-0 230.6575 214.55225)">Coarse scan</text>
    </g>
    <g id="patch_48">
     <path d="M 295.50125 214.55225 
L 311.50125 214.55225 
L 311.50125 208.95225 
L 295.50125 208.95225 
z
" style="fill: #c44e52; stroke: #ffffff; stroke-width: 0.8; stroke-linejoin: miter"/>
    </g>
    <g id="text_23">
     <text style="fill: #262626; font: 8px 'DejaVu Sans'; text-anchor: start" x="317.90125" y="214.55225" transform="rotate(-0 317.90125 214.55225)">Float rerank</text>
    </g>
    <g id="patch_49">
     <path d="M 382.12625 214.55225 
L 398.12625 214.55225 
L 398.12625 208.95225 
L 382.12625 208.95225 
z
" style="fill: #bfbfbf; stroke: #ffffff; stroke-width: 0.8; stroke-linejoin: miter"/>
    </g>
    <g id="text_24">
     <text style="fill: #262626; font: 8px 'DejaVu Sans'; text-anchor: start" x="404.52625" y="214.55225" transform="rotate(-0 404.52625 214.55225)">Other</text>
    </g>
   </g>
  </g>
 </g>
 <defs>
  <clipPath id="p1521b70bc6">
   <rect x="71.74125" y="7.2" width="362.7" height="216.216"/>
  </clipPath>
 </defs>
</svg>
