<?xml version="1.0" encoding="utf-8" standalone="no"?>
<!DOCTYPE svg PUBLIC "-//W3C//DTD SVG 1.1//EN"
  "http://www.w3.org/Graphics/SVG/1.1/DTD/svg11.dtd">
<svg xmlns:xlink="http://www.w3.org/1999/xlink" width="668.705562pt" height="253.824812pt" viewBox="0 0 668.705562 253.824812" xmlns="http://www.w3.org/2000/svg" version="1.1">
 <metadata>
  <rdf:RDF xmlns:dc="http://purl.org/dc/elements/1.1/" xmlns:cc="http://creativecommons.org/ns#" xmlns:rdf="http://www.w3.org/1999/02/22-rdf-syntax-ns#">
   <cc:Work>
    <dc:type rdf:resource="http://purl.org/dc/dcmitype/StillImage"/>
    <dc:date>2026-05-07T13:02:57.281294</dc:date>
    <dc:format>image/svg+xml</dc:format>
    <dc:creator>
     <cc:Agent>
      <dc:title>Matplotlib v3.9.4, https://matplotlib.org/</dc:title>
     </cc:Agent>
    </dc:creator>
   </cc:Work>
  </rdf:RDF>
 </metadata>
 <defs>
  <style type="text/css">*{stroke-linejoin: round; stroke-linecap: butt}</style>
 </defs>
 <g id="figure_1">
  <g id="patch_1">
   <path d="M 0 253.824812 
L 668.705562 253.824812 
L 668.705562 0 
L 0 0 
z
" style="fill: #ffffff"/>
  </g>
  <g id="axes_1">
   <g id="patch_2">
    <path d="M 42.290312 217.872 
L 404.990312 217.872 
L 404.990312 7.2 
L 42.290312 7.2 
z
" style="fill: #ffffff"/>
   </g>
   <g id="matplotlib.axis_1">
    <g id="xtick_1">
     <g id="line2d_1">
      <path d="M 345.183479 217.872 
L 345.183479 7.2 
" clip-path="url(#p9445ddb82e)" style="fill: none; stroke: #cccccc; stroke-width: 0.8; stroke-linecap: round"/>
     </g>
     <g id="text_1">
      <!-- $\mathdefault{10^{0}}$ -->
      <g style="fill: #262626" transform="translate(338.143479 232.25075)">
       <text>
        <tspan style="font: 8px 'DejaVu Sans'" x="0 5.089844" y="-0.78125">10</tspan>
        <tspan style="font: 5.6px 'DejaVu Sans'" x="10.25625" y="-3.84375">0</tspan>
       </text>
      </g>
     </g>
    </g>
    <g id="xtick_2">
     <g id="text_2">
      <!-- $\mathdefault{4\times10^{-1}}$ -->
      <g style="fill: #262626" transform="translate(41.936676 230.55075)">
       <text>
        <tspan style="font: 8px 'DejaVu Sans'" x="0 6.648438 14.910156 20" y="-0.8578125000000005">4×10</tspan>
        <tspan style="font: 5.6px 'DejaVu Sans'" x="25.166406 29.858594" y="-3.9203125000000005">−1</tspan>
       </text>
      </g>
     </g>
    </g>
    <g id="xtick_3"/>
    <g id="xtick_4">
     <g id="text_3">
      <!-- $\mathdefault{6\times10^{-1}}$ -->
      <g style="fill: #262626" transform="translate(168.673706 230.55075)">
       <text>
        <tspan style="font: 8px 'DejaVu Sans'" x="0 6.648438 14.910156 20" y="-0.8578125000000005">6×10</tspan>
        <tspan style="font: 5.6px 'DejaVu Sans'" x="25.166406 29.858594" y="-3.9203125000000005">−1</tspan>
       </text>
      </g>
     </g>
    </g>
    <g id="xtick_5"/>
    <g id="xtick_6"/>
    <g id="xtick_7"/>
    <g id="text_4">
     <text style="fill: #262626; font: 9px 'DejaVu Sans'; text-anchor: middle" x="223.640312" y="244.753094" transform="rotate(-0 223.640312 244.753094)">Estimated arithmetic intensity (ops/byte)</text>
    </g>
   </g>
   <g id="matplotlib.axis_2">
    <g id="ytick_1">
     <g id="line2d_2">
      <path d="M 42.290312 176.624173 
L 404.990312 176.624173 
" clip-path="url(#p9445ddb82e)" style="fill: none; stroke: #cccccc; stroke-width: 0.8; stroke-linecap: round"/>
     </g>
     <g id="text_5">
      <!-- $\mathdefault{10^{0}}$ -->
      <g style="fill: #262626" transform="translate(19.910313 179.663548)">
       <text>
        <tspan style="font: 8px 'DejaVu Sans'" x="0 5.089844" y="-0.78125">10</tspan>
        <tspan style="font: 5.6px 'DejaVu Sans'" x="10.25625" y="-3.84375">0</tspan>
       </text>
      </g>
     </g>
    </g>
    <g id="ytick_2">
     <g id="line2d_3">
      <path d="M 42.290312 80.46046 
L 404.990312 80.46046 
" clip-path="url(#p9445ddb82e)" style="fill: none; stroke: #cccccc; stroke-width: 0.8; stroke-linecap: round"/>
     </g>
     <g id="text_6">
      <!-- $\mathdefault{10^{1}}$ -->
      <g style="fill: #262626" transform="translate(19.910313 83.499835)">
       <text>
        <tspan style="font: 8px 'DejaVu Sans'" x="0 5.089844" y="-0.8578125000000005">10</tspan>
        <tspan style="font: 5.6px 'DejaVu Sans'" x="10.25625" y="-3.9203125000000005">1</tspan>
       </text>
      </g>
     </g>
    </g>
    <g id="ytick_3"/>
    <g id="ytick_4"/>
    <g id="ytick_5"/>
    <g id="ytick_6"/>
    <g id="ytick_7"/>
    <g id="ytick_8"/>
    <g id="ytick_9"/>
    <g id="ytick_10"/>
    <g id="ytick_11"/>
    <g id="ytick_12"/>
    <g id="ytick_13"/>
    <g id="ytick_14"/>
    <g id="ytick_15"/>
    <g id="ytick_16"/>
    <g id="ytick_17"/>
    <g id="ytick_18"/>
    <g id="ytick_19"/>
    <g id="ytick_20"/>
    <g id="text_7">
     <text style="fill: #262626; font: 9px 'DejaVu Sans'; text-anchor: middle" x="14.038594" y="112.536" transform="rotate(-90 14.038594 112.536)">Effective throughput (GOPS)</text>
    </g>
   </g>
   <g id="line2d_4">
    <path d="M 58.776676 118.727848 
L 62.107255 118.282843 
L 65.437833 117.837838 
L 68.768412 117.392833 
L 72.09899 116.947827 
L 75.429569 116.502822 
L 78.760147 116.057817 
L 82.090726 115.612811 
L 85.421304 115.167806 
L 88.751883 114.722801 
L 92.082461 114.277796 
L 95.41304 113.83279 
L 98.743618 113.387785 
L 102.074197 112.94278 
L 105.404775 112.497774 
L 108.735354 112.052769 
L 112.065932 111.607764 
L 115.396511 111.162759 
L 118.727089 110.717753 
L 122.057668 110.272748 
L 125.388246 109.827743 
L 128.718825 109.382737 
L 132.049403 108.937732 
L 135.379982 108.492727 
L 138.71056 108.047721 
L 142.041139 107.602716 
L 145.371717 107.157711 
L 148.702296 106.712706 
L 152.032874 106.2677 
L 155.363453 105.822695 
L 158.694032 105.37769 
L 162.02461 104.932684 
L 165.355189 104.487679 
L 168.685767 104.042674 
L 172.016346 103.597669 
L 175.346924 103.152663 
L 178.677503 102.707658 
L 182.008081 102.262653 
L 185.33866 101.817647 
L 188.669238 101.372642 
L 191.999817 100.927637 
L 195.330395 100.482631 
L 198.660974 100.037626 
L 201.991552 99.592621 
L 205.322131 99.147616 
L 208.652709 98.70261 
L 211.983288 98.257605 
L 215.313866 97.8126 
L 218.644445 97.367594 
L 221.975023 96.922589 
L 225.305602 96.477584 
L 228.63618 96.032579 
L 231.966759 95.587573 
L 235.297337 95.142568 
L 238.627916 94.697563 
L 241.958494 94.252557 
L 245.289073 93.807552 
L 248.619651 93.362547 
L 251.95023 92.917542 
L 255.280808 92.472536 
L 258.611387 92.027531 
L 261.941965 91.582526 
L 265.272544 91.13752 
L 268.603122 90.692515 
L 271.933701 90.24751 
L 275.264279 89.802504 
L 278.594858 89.357499 
L 281.925436 88.912494 
L 285.256015 88.467489 
L 288.586593 88.022483 
L 291.917172 87.577478 
L 295.247751 87.132473 
L 298.578329 86.687467 
L 301.908908 86.242462 
L 305.239486 85.797457 
L 308.570065 85.352452 
L 311.900643 84.907446 
L 315.231222 84.462441 
L 318.5618 84.017436 
L 321.892379 83.57243 
L 325.222957 83.127425 
L 328.553536 82.68242 
L 331.884114 82.237414 
L 335.214693 81.792409 
L 338.545271 81.347404 
L 341.87585 80.902399 
L 345.206428 80.457393 
L 348.537007 80.012388 
L 351.867585 79.567383 
L 355.198164 79.122377 
L 358.528742 78.677372 
L 361.859321 78.232367 
L 365.189899 77.787362 
L 368.520478 77.342356 
L 371.851056 76.897351 
L 375.181635 76.452346 
L 378.512213 76.00734 
L 381.842792 75.562335 
L 385.17337 75.11733 
L 388.503949 74.672324 
" clip-path="url(#p9445ddb82e)" style="fill: none; stroke-dasharray: 2.775,1.2; stroke-dashoffset: 0; stroke: #737373; stroke-width: 0.75"/>
   </g>
   <g id="line2d_5">
    <path d="M 58.776676 89.779686 
L 62.107255 89.334681 
L 65.437833 88.889676 
L 68.768412 88.44467 
L 72.09899 87.999665 
L 75.429569 87.55466 
L 78.760147 87.109654 
L 82.090726 86.664649 
L 85.421304 86.219644 
L 88.751883 85.774639 
L 92.082461 85.329633 
L 95.41304 84.884628 
L 98.743618 84.439623 
L 102.074197 83.994617 
L 105.404775 83.549612 
L 108.735354 83.104607 
L 112.065932 82.659602 
L 115.396511 82.214596 
L 118.727089 81.769591 
L 122.057668 81.324586 
L 125.388246 80.87958 
L 128.718825 80.434575 
L 132.049403 79.98957 
L 135.379982 79.544565 
L 138.71056 79.099559 
L 142.041139 78.654554 
L 145.371717 78.209549 
L 148.702296 77.764543 
L 152.032874 77.319538 
L 155.363453 76.874533 
L 158.694032 76.429527 
L 162.02461 75.984522 
L 165.355189 75.539517 
L 168.685767 75.094512 
L 172.016346 74.649506 
L 175.346924 74.204501 
L 178.677503 73.759496 
L 182.008081 73.31449 
L 185.33866 72.869485 
L 188.669238 72.42448 
L 191.999817 71.979475 
L 195.330395 71.534469 
L 198.660974 71.089464 
L 201.991552 70.644459 
L 205.322131 70.199453 
L 208.652709 69.754448 
L 211.983288 69.309443 
L 215.313866 68.864437 
L 218.644445 68.419432 
L 221.975023 67.974427 
L 225.305602 67.529422 
L 228.63618 67.084416 
L 231.966759 66.639411 
L 235.297337 66.194406 
L 238.627916 65.7494 
L 241.958494 65.304395 
L 245.289073 64.85939 
L 248.619651 64.414385 
L 251.95023 63.969379 
L 255.280808 63.524374 
L 258.611387 63.079369 
L 261.941965 62.634363 
L 265.272544 62.189358 
L 268.603122 61.744353 
L 271.933701 61.299347 
L 275.264279 60.854342 
L 278.594858 60.409337 
L 281.925436 59.964332 
L 285.256015 59.519326 
L 288.586593 59.074321 
L 291.917172 58.629316 
L 295.247751 58.18431 
L 298.578329 57.739305 
L 301.908908 57.2943 
L 305.239486 56.849295 
L 308.570065 56.404289 
L 311.900643 55.959284 
L 315.231222 55.514279 
L 318.5618 55.069273 
L 321.892379 54.624268 
L 325.222957 54.179263 
L 328.553536 53.734258 
L 331.884114 53.289252 
L 335.214693 52.844247 
L 338.545271 52.399242 
L 341.87585 51.954236 
L 345.206428 51.509231 
L 348.537007 51.064226 
L 351.867585 50.61922 
L 355.198164 50.174215 
L 358.528742 49.72921 
L 361.859321 49.284205 
L 365.189899 48.839199 
L 368.520478 48.394194 
L 371.851056 47.949189 
L 375.181635 47.504183 
L 378.512213 47.059178 
L 381.842792 46.614173 
L 385.17337 46.169168 
L 388.503949 45.724162 
" clip-path="url(#p9445ddb82e)" style="fill: none; stroke-dasharray: 2.775,1.2; stroke-dashoffset: 0; stroke: #737373; stroke-width: 0.75"/>
   </g>
   <g id="line2d_6">
    <path d="M 58.776676 60.831524 
L 62.107255 60.386519 
L 65.437833 59.941513 
L 68.768412 59.496508 
L 72.09899 59.051503 
L 75.429569 58.606498 
L 78.760147 58.161492 
L 82.090726 57.716487 
L 85.421304 57.271482 
L 88.751883 56.826476 
L 92.082461 56.381471 
L 95.41304 55.936466 
L 98.743618 55.49146 
L 102.074197 55.046455 
L 105.404775 54.60145 
L 108.735354 54.156445 
L 112.065932 53.711439 
L 115.396511 53.266434 
L 118.727089 52.821429 
L 122.057668 52.376423 
L 125.388246 51.931418 
L 128.718825 51.486413 
L 132.049403 51.041408 
L 135.379982 50.596402 
L 138.71056 50.151397 
L 142.041139 49.706392 
L 145.371717 49.261386 
L 148.702296 48.816381 
L 152.032874 48.371376 
L 155.363453 47.926371 
L 158.694032 47.481365 
L 162.02461 47.03636 
L 165.355189 46.591355 
L 168.685767 46.146349 
L 172.016346 45.701344 
L 175.346924 45.256339 
L 178.677503 44.811333 
L 182.008081 44.366328 
L 185.33866 43.921323 
L 188.669238 43.476318 
L 191.999817 43.031312 
L 195.330395 42.586307 
L 198.660974 42.141302 
L 201.991552 41.696296 
L 205.322131 41.251291 
L 208.652709 40.806286 
L 211.983288 40.361281 
L 215.313866 39.916275 
L 218.644445 39.47127 
L 221.975023 39.026265 
L 225.305602 38.581259 
L 228.63618 38.136254 
L 231.966759 37.691249 
L 235.297337 37.246243 
L 238.627916 36.801238 
L 241.958494 36.356233 
L 245.289073 35.911228 
L 248.619651 35.466222 
L 251.95023 35.021217 
L 255.280808 34.576212 
L 258.611387 34.131206 
L 261.941965 33.686201 
L 265.272544 33.241196 
L 268.603122 32.796191 
L 271.933701 32.351185 
L 275.264279 31.90618 
L 278.594858 31.461175 
L 281.925436 31.016169 
L 285.256015 30.571164 
L 288.586593 30.126159 
L 291.917172 29.681153 
L 295.247751 29.236148 
L 298.578329 28.791143 
L 301.908908 28.346138 
L 305.239486 27.901132 
L 308.570065 27.456127 
L 311.900643 27.011122 
L 315.231222 26.566116 
L 318.5618 26.121111 
L 321.892379 25.676106 
L 325.222957 25.231101 
L 328.553536 24.786095 
L 331.884114 24.34109 
L 335.214693 23.896085 
L 338.545271 23.451079 
L 341.87585 23.006074 
L 345.206428 22.561069 
L 348.537007 22.116064 
L 351.867585 21.671058 
L 355.198164 21.226053 
L 358.528742 20.781048 
L 361.859321 20.336042 
L 365.189899 19.891037 
L 368.520478 19.446032 
L 371.851056 19.001026 
L 375.181635 18.556021 
L 378.512213 18.111016 
L 381.842792 17.666011 
L 385.17337 17.221005 
L 388.503949 16.776 
" clip-path="url(#p9445ddb82e)" style="fill: none; stroke-dasharray: 2.775,1.2; stroke-dashoffset: 0; stroke: #737373; stroke-width: 0.75"/>
   </g>
   <g id="patch_3">
    <path d="M 42.290312 217.872 
L 42.290312 7.2 
" style="fill: none; stroke: #cccccc; stroke-linejoin: miter; stroke-linecap: square"/>
   </g>
   <g id="patch_4">
    <path d="M 42.290312 217.872 
L 404.990312 217.872 
" style="fill: none; stroke: #cccccc; stroke-linejoin: miter; stroke-linecap: square"/>
   </g>
   <g id="PathCollection_1">
    <defs>
     <path id="me9c977a9d2" d="M 0 4.278149 
C 1.134578 4.278149 2.22284 3.827376 3.025108 3.025108 
C 3.827376 2.22284 4.278149 1.134578 4.278149 0 
C 4.278149 -1.134578 3.827376 -2.22284 3.025108 -3.025108 
C 2.22284 -3.827376 1.134578 -4.278149 0 -4.278149 
C -1.134578 -4.278149 -2.22284 -3.827376 -3.025108 -3.025108 
C -3.827376 -2.22284 -4.278149 -1.134578 -4.278149 0 
C -4.278149 1.134578 -3.827376 2.22284 -3.025108 3.025108 
C -2.22284 3.827376 -1.134578 4.278149 0 4.278149 
z
" style="stroke: #ffffff; stroke-width: 0.55"/>
    </defs>
    <g clip-path="url(#p9445ddb82e)">
     <use xlink:href="#me9c977a9d2" x="128.525097" y="146.790827" style="fill: #0173b2; stroke: #ffffff; stroke-width: 0.55"/>
    </g>
   </g>
   <g id="PathCollection_2">
    <defs>
     <path id="m43d7a0f72c" d="M 0 4.974397 
C 1.319225 4.974397 2.584596 4.450263 3.51743 3.51743 
C 4.450263 2.584596 4.974397 1.319225 4.974397 0 
C 4.974397 -1.319225 4.450263 -2.584596 3.51743 -3.51743 
C 2.584596 -4.450263 1.319225 -4.974397 0 -4.974397 
C -1.319225 -4.974397 -2.584596 -4.450263 -3.51743 -3.51743 
C -4.450263 -2.584596 -4.974397 -1.319225 -4.974397 0 
C -4.974397 1.319225 -4.450263 2.584596 -3.51743 3.51743 
C -2.584596 4.450263 -1.319225 4.974397 0 4.974397 
z
" style="stroke: #ffffff; stroke-width: 0.55"/>
    </defs>
    <g clip-path="url(#p9445ddb82e)">
     <use xlink:href="#m43d7a0f72c" x="295.374038" y="208.296" style="fill: #de8f05; stroke: #ffffff; stroke-width: 0.55"/>
    </g>
   </g>
   <g id="PathCollection_3">
    <defs>
     <path id="mb5c26fa43d" d="M 0 5.044947 
C 1.337936 5.044947 2.621253 4.51338 3.567316 3.567316 
C 4.51338 2.621253 5.044947 1.337936 5.044947 0 
C 5.044947 -1.337936 4.51338 -2.621253 3.567316 -3.567316 
C 2.621253 -4.51338 1.337936 -5.044947 0 -5.044947 
C -1.337936 -5.044947 -2.621253 -4.51338 -3.567316 -3.567316 
C -4.51338 -2.621253 -5.044947 -1.337936 -5.044947 0 
C -5.044947 1.337936 -4.51338 2.621253 -3.567316 3.567316 
C -2.621253 4.51338 -1.337936 5.044947 0 5.044947 
z
" style="stroke: #ffffff; stroke-width: 0.55"/>
    </defs>
    <g clip-path="url(#p9445ddb82e)">
     <use xlink:href="#mb5c26fa43d" x="295.374038" y="200.299502" style="fill: #029e73; stroke: #ffffff; stroke-width: 0.55"/>
    </g>
   </g>
   <g id="PathCollection_4">
    <defs>
     <path id="mb2997d0171" d="M 0 5.329278 
C 1.413341 5.329278 2.768986 4.767752 3.768369 3.768369 
C 4.767752 2.768986 5.329278 1.413341 5.329278 0 
C 5.329278 -1.413341 4.767752 -2.768986 3.768369 -3.768369 
C 2.768986 -4.767752 1.413341 -5.329278 0 -5.329278 
C -1.413341 -5.329278 -2.768986 -4.767752 -3.768369 -3.768369 
C -4.767752 -2.768986 -5.329278 -1.413341 -5.329278 0 
C -5.329278 1.413341 -4.767752 2.768986 -3.768369 3.768369 
C -2.768986 4.767752 -1.413341 5.329278 0 5.329278 
z
" style="stroke: #ffffff; stroke-width: 0.55"/>
    </defs>
    <g clip-path="url(#p9445ddb82e)">
     <use xlink:href="#mb2997d0171" x="306.496233" y="196.587146" style="fill: #d55e00; stroke: #ffffff; stroke-width: 0.55"/>
    </g>
   </g>
   <g id="text_8">
    <g id="patch_5">
     <path d="M 412.244312 51.502002 
L 661.505562 51.502002 
Q 663.465563 51.502002 663.465563 49.542002 
L 663.465563 11.41344 
Q 663.465563 9.45344 661.505562 9.45344 
L 412.244312 9.45344 
Q 410.284312 9.45344 410.284312 11.41344 
L 410.284312 49.542002 
Q 410.284312 51.502002 412.244312 51.502002 
z
" style="fill: #ffffff; stroke: #d1d1d1; stroke-width: 0.6; stroke-linejoin: miter"/>
    </g>
    <text style="fill: #262626; font: 7px 'DejaVu Sans'" transform="translate(412.244312 16.732346)">Kernel summary</text>
    <text style="fill: #262626; font: 7px 'DejaVu Sans'" transform="translate(412.244312 24.570815)">[1] flat-neon: IPC 0.88, cyc/q 24.1M, GOPS 2.04, LLC 40.1%</text>
    <text style="fill: #262626; font: 7px 'DejaVu Sans'" transform="translate(412.244312 32.409284)">[2] pq-m16-p2000: IPC 1.69, cyc/q 12.8M, GOPS 0.47, LLC 17.2%</text>
    <text style="fill: #262626; font: 7px 'DejaVu Sans'" transform="translate(412.244312 40.247752)">[3] pqsel-m16-p2000: IPC 1.78, cyc/q 10.9M, GOPS 0.57, LLC 19.7%</text>
    <text style="fill: #262626; font: 7px 'DejaVu Sans'" transform="translate(412.244312 48.086221)">[4] fsadc-m16-p1500-b64: IPC 2.14, cyc/q 9.7M, GOPS 0.62, LLC 20.9%</text>
   </g>
   <g id="text_9">
    <text style="fill: #595959; font: 7px 'DejaVu Sans'; text-anchor: start" x="49.544312" y="16.732346" transform="rotate(-0 49.544312 16.732346)">Dashed guide lines: 10 / 20 / 40 GB/s</text>
   </g>
  </g>
 </g>
 <defs>
  <clipPath id="p9445ddb82e">
   <rect x="42.290312" y="7.2" width="362.7" height="210.672"/>
  </clipPath>
 </defs>
</svg>
