<?xml version="1.0" encoding="utf-8" standalone="no"?>
<!DOCTYPE svg PUBLIC "-//W3C//DTD SVG 1.1//EN"
  "http://www.w3.org/Graphics/SVG/1.1/DTD/svg11.dtd">
<svg xmlns:xlink="http://www.w3.org/1999/xlink" width="343.872812pt" height="226.104812pt" viewBox="0 0 343.872812 226.104812" xmlns="http://www.w3.org/2000/svg" version="1.1">
 <metadata>
  <rdf:RDF xmlns:dc="http://purl.org/dc/elements/1.1/" xmlns:cc="http://creativecommons.org/ns#" xmlns:rdf="http://www.w3.org/1999/02/22-rdf-syntax-ns#">
   <cc:Work>
    <dc:type rdf:resource="http://purl.org/dc/dcmitype/StillImage"/>
    <dc:date>2026-05-07T13:55:35.933938</dc:date>
    <dc:format>image/svg+xml</dc:format>
    <dc:creator>
     <cc:Agent>
      <dc:title>Matplotlib v3.9.4, https://matplotlib.org/</dc:title>
     </cc:Agent>
    </dc:creator>
   </cc:Work>
  </rdf:RDF>
 </metadata>
 <defs>
  <style type="text/css">*{stroke-linejoin: round; stroke-linecap: butt}</style>
 </defs>
 <g id="figure_1">
  <g id="patch_1">
   <path d="M 0 226.104812 
L 343.872812 226.104812 
L 343.872812 0 
L 0 0 
z
" style="fill: #ffffff"/>
  </g>
  <g id="axes_1">
   <g id="patch_2">
    <path d="M 40.932813 190.152 
L 336.672813 190.152 
L 336.672813 7.2 
L 40.932813 7.2 
z
" style="fill: #ffffff"/>
   </g>
   <g id="matplotlib.axis_1">
    <g id="xtick_1">
     <g id="line2d_1">
      <path d="M 54.37554 190.152 
L 54.37554 7.2 
" clip-path="url(#p7e493c0a1d)" style="fill: none; stroke: #cccccc; stroke-opacity: 0.35; stroke-width: 0.45; stroke-linecap: round"/>
     </g>
     <g id="text_1">
      <!-- $\mathdefault{10^{2}}$ -->
      <g style="fill: #262626" transform="translate(47.33554 204.53075)">
       <text>
        <tspan style="font: 8px 'DejaVu Sans'" x="0 5.089844" y="-0.78125">10</tspan>
        <tspan style="font: 5.6px 'DejaVu Sans'" x="10.25625" y="-3.84375">2</tspan>
       </text>
      </g>
     </g>
    </g>
    <g id="xtick_2">
     <g id="line2d_2">
      <path d="M 188.802813 190.152 
L 188.802813 7.2 
" clip-path="url(#p7e493c0a1d)" style="fill: none; stroke: #cccccc; stroke-opacity: 0.35; stroke-width: 0.45; stroke-linecap: round"/>
     </g>
     <g id="text_2">
      <!-- $\mathdefault{10^{3}}$ -->
      <g style="fill: #262626" transform="translate(181.762813 204.53075)">
       <text>
        <tspan style="font: 8px 'DejaVu Sans'" x="0 5.089844" y="-0.78125">10</tspan>
        <tspan style="font: 5.6px 'DejaVu Sans'" x="10.25625" y="-3.84375">3</tspan>
       </text>
      </g>
     </g>
    </g>
    <g id="xtick_3">
     <g id="line2d_3">
      <path d="M 323.230085 190.152 
L 323.230085 7.2 
" clip-path="url(#p7e493c0a1d)" style="fill: none; stroke: #cccccc; stroke-opacity: 0.35; stroke-width: 0.45; stroke-linecap: round"/>
     </g>
     <g id="text_3">
      <!-- $\mathdefault{10^{4}}$ -->
      <g style="fill: #262626" transform="translate(316.190085 204.53075)">
       <text>
        <tspan style="font: 8px 'DejaVu Sans'" x="0 5.089844" y="-0.8578125000000005">10</tspan>
        <tspan style="font: 5.6px 'DejaVu Sans'" x="10.25625" y="-3.9203125000000005">4</tspan>
       </text>
      </g>
     </g>
    </g>
    <g id="xtick_4"/>
    <g id="xtick_5"/>
    <g id="xtick_6"/>
    <g id="xtick_7"/>
    <g id="xtick_8"/>
    <g id="xtick_9"/>
    <g id="xtick_10"/>
    <g id="xtick_11"/>
    <g id="xtick_12"/>
    <g id="xtick_13"/>
    <g id="xtick_14"/>
    <g id="xtick_15"/>
    <g id="xtick_16"/>
    <g id="xtick_17"/>
    <g id="xtick_18"/>
    <g id="xtick_19"/>
    <g id="xtick_20"/>
    <g id="xtick_21"/>
    <g id="text_4">
     <text style="fill: #262626; font: 9px 'DejaVu Sans'; text-anchor: middle" x="188.802813" y="217.033094" transform="rotate(-0 188.802813 217.033094)">Rerank candidate count p (log scale)</text>
    </g>
   </g>
   <g id="matplotlib.axis_2">
    <g id="ytick_1">
     <g id="line2d_4">
      <path d="M 40.932813 185.022505 
L 336.672813 185.022505 
" clip-path="url(#p7e493c0a1d)" style="fill: none; stroke: #cccccc; stroke-opacity: 0.35; stroke-width: 0.45; stroke-linecap: round"/>
     </g>
     <g id="text_5">
      <text style="fill: #262626; font: 8px 'DejaVu Sans'; text-anchor: end" x="32.632812" y="188.06188" transform="rotate(-0 32.632812 188.06188)">0.0</text>
     </g>
    </g>
    <g id="ytick_2">
     <g id="line2d_5">
      <path d="M 40.932813 150.825869 
L 336.672813 150.825869 
" clip-path="url(#p7e493c0a1d)" style="fill: none; stroke: #cccccc; stroke-opacity: 0.35; stroke-width: 0.45; stroke-linecap: round"/>
     </g>
     <g id="text_6">
      <text style="fill: #262626; font: 8px 'DejaVu Sans'; text-anchor: end" x="32.632812" y="153.865244" transform="rotate(-0 32.632812 153.865244)">0.2</text>
     </g>
    </g>
    <g id="ytick_3">
     <g id="line2d_6">
      <path d="M 40.932813 116.629234 
L 336.672813 116.629234 
" clip-path="url(#p7e493c0a1d)" style="fill: none; stroke: #cccccc; stroke-opacity: 0.35; stroke-width: 0.45; stroke-linecap: round"/>
     </g>
     <g id="text_7">
      <text style="fill: #262626; font: 8px 'DejaVu Sans'; text-anchor: end" x="32.632812" y="119.668609" transform="rotate(-0 32.632812 119.668609)">0.4</text>
     </g>
    </g>
    <g id="ytick_4">
     <g id="line2d_7">
      <path d="M 40.932813 82.432598 
L 336.672813 82.432598 
" clip-path="url(#p7e493c0a1d)" style="fill: none; stroke: #cccccc; stroke-opacity: 0.35; stroke-width: 0.45; stroke-linecap: round"/>
     </g>
     <g id="text_8">
      <text style="fill: #262626; font: 8px 'DejaVu Sans'; text-anchor: end" x="32.632812" y="85.471973" transform="rotate(-0 32.632812 85.471973)">0.6</text>
     </g>
    </g>
    <g id="ytick_5">
     <g id="line2d_8">
      <path d="M 40.932813 48.235963 
L 336.672813 48.235963 
" clip-path="url(#p7e493c0a1d)" style="fill: none; stroke: #cccccc; stroke-opacity: 0.35; stroke-width: 0.45; stroke-linecap: round"/>
     </g>
     <g id="text_9">
      <text style="fill: #262626; font: 8px 'DejaVu Sans'; text-anchor: end" x="32.632812" y="51.275338" transform="rotate(-0 32.632812 51.275338)">0.8</text>
     </g>
    </g>
    <g id="ytick_6">
     <g id="line2d_9">
      <path d="M 40.932813 14.039327 
L 336.672813 14.039327 
" clip-path="url(#p7e493c0a1d)" style="fill: none; stroke: #cccccc; stroke-opacity: 0.35; stroke-width: 0.45; stroke-linecap: round"/>
     </g>
     <g id="text_10">
      <text style="fill: #262626; font: 8px 'DejaVu Sans'; text-anchor: end" x="32.632812" y="17.078702" transform="rotate(-0 32.632812 17.078702)">1.0</text>
     </g>
    </g>
    <g id="text_11">
     <text style="fill: #262626; font: 9px 'DejaVu Sans'; text-anchor: middle" x="14.038594" y="98.676" transform="rotate(-90 14.038594 98.676)">Recall@10</text>
    </g>
   </g>
   <g id="line2d_10">
    <path d="M 54.37554 73.883439 
L 148.336171 26.00815 
L 188.802813 19.168822 
L 229.269454 14.894243 
L 282.763444 14.039327 
" clip-path="url(#p7e493c0a1d)" style="fill: none; stroke: #0173b2; stroke-width: 1.5; stroke-linecap: round"/>
    <defs>
     <path id="m6bc5a1cdd9" d="M 0 2.25 
C 0.596707 2.25 1.169055 2.012926 1.59099 1.59099 
C 2.012926 1.169055 2.25 0.596707 2.25 0 
C 2.25 -0.596707 2.012926 -1.169055 1.59099 -1.59099 
C 1.169055 -2.012926 0.596707 -2.25 0 -2.25 
C -0.596707 -2.25 -1.169055 -2.012926 -1.59099 -1.59099 
C -2.012926 -1.169055 -2.25 -0.596707 -2.25 0 
C -2.25 0.596707 -2.012926 1.169055 -1.59099 1.59099 
C -1.169055 2.012926 -0.596707 2.25 0 2.25 
z
" style="stroke: #ffffff; stroke-width: 0.75"/>
    </defs>
    <g clip-path="url(#p7e493c0a1d)">
     <use xlink:href="#m6bc5a1cdd9" x="54.37554" y="73.883439" style="fill: #0173b2; stroke: #ffffff; stroke-width: 0.75"/>
     <use xlink:href="#m6bc5a1cdd9" x="148.336171" y="26.00815" style="fill: #0173b2; stroke: #ffffff; stroke-width: 0.75"/>
     <use xlink:href="#m6bc5a1cdd9" x="188.802813" y="19.168822" style="fill: #0173b2; stroke: #ffffff; stroke-width: 0.75"/>
     <use xlink:href="#m6bc5a1cdd9" x="229.269454" y="14.894243" style="fill: #0173b2; stroke: #ffffff; stroke-width: 0.75"/>
     <use xlink:href="#m6bc5a1cdd9" x="282.763444" y="14.039327" style="fill: #0173b2; stroke: #ffffff; stroke-width: 0.75"/>
    </g>
   </g>
   <g id="line2d_11">
    <path d="M 54.37554 182.457757 
L 94.842181 178.183178 
L 148.336171 169.634019 
L 188.802813 161.08486 
L 229.269454 141.421794 
L 282.763444 102.950579 
L 323.230085 67.899028 
" clip-path="url(#p7e493c0a1d)" style="fill: none; stroke: #de8f05; stroke-width: 1.5; stroke-linecap: round"/>
    <defs>
     <path id="ma0a7619af0" d="M 0 2.25 
C 0.596707 2.25 1.169055 2.012926 1.59099 1.59099 
C 2.012926 1.169055 2.25 0.596707 2.25 0 
C 2.25 -0.596707 2.012926 -1.169055 1.59099 -1.59099 
C 1.169055 -2.012926 0.596707 -2.25 0 -2.25 
C -0.596707 -2.25 -1.169055 -2.012926 -1.59099 -1.59099 
C -2.012926 -1.169055 -2.25 -0.596707 -2.25 0 
C -2.25 0.596707 -2.012926 1.169055 -1.59099 1.59099 
C -1.169055 2.012926 -0.596707 2.25 0 2.25 
z
" style="stroke: #ffffff; stroke-width: 0.75"/>
    </defs>
    <g clip-path="url(#p7e493c0a1d)">
     <use xlink:href="#ma0a7619af0" x="54.37554" y="182.457757" style="fill: #de8f05; stroke: #ffffff; stroke-width: 0.75"/>
     <use xlink:href="#ma0a7619af0" x="94.842181" y="178.183178" style="fill: #de8f05; stroke: #ffffff; stroke-width: 0.75"/>
     <use xlink:href="#ma0a7619af0" x="148.336171" y="169.634019" style="fill: #de8f05; stroke: #ffffff; stroke-width: 0.75"/>
     <use xlink:href="#ma0a7619af0" x="188.802813" y="161.08486" style="fill: #de8f05; stroke: #ffffff; stroke-width: 0.75"/>
     <use xlink:href="#ma0a7619af0" x="229.269454" y="141.421794" style="fill: #de8f05; stroke: #ffffff; stroke-width: 0.75"/>
     <use xlink:href="#ma0a7619af0" x="282.763444" y="102.950579" style="fill: #de8f05; stroke: #ffffff; stroke-width: 0.75"/>
     <use xlink:href="#ma0a7619af0" x="323.230085" y="67.899028" style="fill: #de8f05; stroke: #ffffff; stroke-width: 0.75"/>
    </g>
   </g>
   <g id="line2d_12">
    <path d="M 54.37554 31.137645 
L 148.336171 14.039327 
L 188.802813 14.039327 
L 229.269454 14.043602 
L 282.763444 14.039327 
" clip-path="url(#p7e493c0a1d)" style="fill: none; stroke: #029e73; stroke-width: 1.5; stroke-linecap: round"/>
    <defs>
     <path id="ma3813fe9b4" d="M 0 2.25 
C 0.596707 2.25 1.169055 2.012926 1.59099 1.59099 
C 2.012926 1.169055 2.25 0.596707 2.25 0 
C 2.25 -0.596707 2.012926 -1.169055 1.59099 -1.59099 
C 1.169055 -2.012926 0.596707 -2.25 0 -2.25 
C -0.596707 -2.25 -1.169055 -2.012926 -1.59099 -1.59099 
C -2.012926 -1.169055 -2.25 -0.596707 -2.25 0 
C -2.25 0.596707 -2.012926 1.169055 -1.59099 1.59099 
C -1.169055 2.012926 -0.596707 2.25 0 2.25 
z
" style="stroke: #ffffff; stroke-width: 0.75"/>
    </defs>
    <g clip-path="url(#p7e493c0a1d)">
     <use xlink:href="#ma3813fe9b4" x="54.37554" y="31.137645" style="fill: #029e73; stroke: #ffffff; stroke-width: 0.75"/>
     <use xlink:href="#ma3813fe9b4" x="148.336171" y="14.039327" style="fill: #029e73; stroke: #ffffff; stroke-width: 0.75"/>
     <use xlink:href="#ma3813fe9b4" x="188.802813" y="14.039327" style="fill: #029e73; stroke: #ffffff; stroke-width: 0.75"/>
     <use xlink:href="#ma3813fe9b4" x="229.269454" y="14.043602" style="fill: #029e73; stroke: #ffffff; stroke-width: 0.75"/>
     <use xlink:href="#ma3813fe9b4" x="282.763444" y="14.039327" style="fill: #029e73; stroke: #ffffff; stroke-width: 0.75"/>
    </g>
   </g>
   <g id="line2d_13">
    <path d="M 54.37554 14.039327 
L 94.842181 14.039327 
L 148.336171 14.039327 
L 188.802813 14.039327 
L 229.269454 14.039327 
L 282.763444 14.039327 
L 323.230085 14.039327 
" clip-path="url(#p7e493c0a1d)" style="fill: none; stroke: #d55e00; stroke-width: 1.5; stroke-linecap: round"/>
    <defs>
     <path id="m720d11e871" d="M 0 2.25 
C 0.596707 2.25 1.169055 2.012926 1.59099 1.59099 
C 2.012926 1.169055 2.25 0.596707 2.25 0 
C 2.25 -0.596707 2.012926 -1.169055 1.59099 -1.59099 
C 1.169055 -2.012926 0.596707 -2.25 0 -2.25 
C -0.596707 -2.25 -1.169055 -2.012926 -1.59099 -1.59099 
C -2.012926 -1.169055 -2.25 -0.596707 -2.25 0 
C -2.25 0.596707 -2.012926 1.169055 -1.59099 1.59099 
C -1.169055 2.012926 -0.596707 2.25 0 2.25 
z
" style="stroke: #ffffff; stroke-width: 0.75"/>
    </defs>
    <g clip-path="url(#p7e493c0a1d)">
     <use xlink:href="#m720d11e871" x="54.37554" y="14.039327" style="fill: #d55e00; stroke: #ffffff; stroke-width: 0.75"/>
     <use xlink:href="#m720d11e871" x="94.842181" y="14.039327" style="fill: #d55e00; stroke: #ffffff; stroke-width: 0.75"/>
     <use xlink:href="#m720d11e871" x="148.336171" y="14.039327" style="fill: #d55e00; stroke: #ffffff; stroke-width: 0.75"/>
     <use xlink:href="#m720d11e871" x="188.802813" y="14.039327" style="fill: #d55e00; stroke: #ffffff; stroke-width: 0.75"/>
     <use xlink:href="#m720d11e871" x="229.269454" y="14.039327" style="fill: #d55e00; stroke: #ffffff; stroke-width: 0.75"/>
     <use xlink:href="#m720d11e871" x="282.763444" y="14.039327" style="fill: #d55e00; stroke: #ffffff; stroke-width: 0.75"/>
     <use xlink:href="#m720d11e871" x="323.230085" y="14.039327" style="fill: #d55e00; stroke: #ffffff; stroke-width: 0.75"/>
    </g>
   </g>
   <g id="line2d_14">
    <path d="M 54.37554 46.526131 
L 148.336171 22.588486 
L 188.802813 17.458991 
L 229.269454 14.039327 
L 282.763444 14.039327 
" clip-path="url(#p7e493c0a1d)" style="fill: none; stroke: #cc78bc; stroke-width: 1.5; stroke-linecap: round"/>
    <defs>
     <path id="m641b0664d2" d="M 0 2.25 
C 0.596707 2.25 1.169055 2.012926 1.59099 1.59099 
C 2.012926 1.169055 2.25 0.596707 2.25 0 
C 2.25 -0.596707 2.012926 -1.169055 1.59099 -1.59099 
C 1.169055 -2.012926 0.596707 -2.25 0 -2.25 
C -0.596707 -2.25 -1.169055 -2.012926 -1.59099 -1.59099 
C -2.012926 -1.169055 -2.25 -0.596707 -2.25 0 
C -2.25 0.596707 -2.012926 1.169055 -1.59099 1.59099 
C -1.169055 2.012926 -0.596707 2.25 0 2.25 
z
" style="stroke: #ffffff; stroke-width: 0.75"/>
    </defs>
    <g clip-path="url(#p7e493c0a1d)">
     <use xlink:href="#m641b0664d2" x="54.37554" y="46.526131" style="fill: #cc78bc; stroke: #ffffff; stroke-width: 0.75"/>
     <use xlink:href="#m641b0664d2" x="148.336171" y="22.588486" style="fill: #cc78bc; stroke: #ffffff; stroke-width: 0.75"/>
     <use xlink:href="#m641b0664d2" x="188.802813" y="17.458991" style="fill: #cc78bc; stroke: #ffffff; stroke-width: 0.75"/>
     <use xlink:href="#m641b0664d2" x="229.269454" y="14.039327" style="fill: #cc78bc; stroke: #ffffff; stroke-width: 0.75"/>
     <use xlink:href="#m641b0664d2" x="282.763444" y="14.039327" style="fill: #cc78bc; stroke: #ffffff; stroke-width: 0.75"/>
    </g>
   </g>
   <g id="line2d_15"/>
   <g id="line2d_16"/>
   <g id="line2d_17"/>
   <g id="line2d_18"/>
   <g id="line2d_19"/>
   <g id="patch_3">
    <path d="M 40.932813 190.152 
L 40.932813 7.2 
" style="fill: none; stroke: #cccccc; stroke-width: 0.8; stroke-linejoin: miter; stroke-linecap: square"/>
   </g>
   <g id="patch_4">
    <path d="M 40.932812 190.152 
L 336.672812 190.152 
" style="fill: none; stroke: #cccccc; stroke-width: 0.8; stroke-linejoin: miter; stroke-linecap: square"/>
   </g>
   <g id="legend_1">
    <g id="line2d_20">
     <path d="M 48.132813 86.341 
L 56.132813 86.341 
L 64.132812 86.341 
" style="fill: none; stroke: #0173b2; stroke-width: 1.5; stroke-linecap: round"/>
     <g>
      <use xlink:href="#m6bc5a1cdd9" x="56.132813" y="86.341" style="fill: #0173b2; stroke: #ffffff; stroke-width: 0.75"/>
     </g>
    </g>
    <g id="text_12">
     <text style="fill: #262626; font: 8px 'DejaVu Sans'; text-anchor: start" x="70.532813" y="89.141" transform="rotate(-0 70.532813 89.141)">PQ M=8</text>
    </g>
    <g id="line2d_21">
     <path d="M 48.132813 98.0835 
L 56.132813 98.0835 
L 64.132812 98.0835 
" style="fill: none; stroke: #de8f05; stroke-width: 1.5; stroke-linecap: round"/>
     <g>
      <use xlink:href="#ma0a7619af0" x="56.132813" y="98.0835" style="fill: #de8f05; stroke: #ffffff; stroke-width: 0.75"/>
     </g>
    </g>
    <g id="text_13">
     <text style="fill: #262626; font: 8px 'DejaVu Sans'; text-anchor: start" x="70.532813" y="100.8835" transform="rotate(-0 70.532813 100.8835)">SQ8-U8SIMD</text>
    </g>
    <g id="line2d_22">
     <path d="M 48.132813 109.826 
L 56.132813 109.826 
L 64.132812 109.826 
" style="fill: none; stroke: #029e73; stroke-width: 1.5; stroke-linecap: round"/>
     <g>
      <use xlink:href="#ma3813fe9b4" x="56.132813" y="109.826" style="fill: #029e73; stroke: #ffffff; stroke-width: 0.75"/>
     </g>
    </g>
    <g id="text_14">
     <text style="fill: #262626; font: 8px 'DejaVu Sans'; text-anchor: start" x="70.532813" y="112.626" transform="rotate(-0 70.532813 112.626)">PQ M=16</text>
    </g>
    <g id="line2d_23">
     <path d="M 137.331562 86.341 
L 145.331562 86.341 
L 153.331562 86.341 
" style="fill: none; stroke: #d55e00; stroke-width: 1.5; stroke-linecap: round"/>
     <g>
      <use xlink:href="#m720d11e871" x="145.331562" y="86.341" style="fill: #d55e00; stroke: #ffffff; stroke-width: 0.75"/>
     </g>
    </g>
    <g id="text_15">
     <text style="fill: #262626; font: 8px 'DejaVu Sans'; text-anchor: start" x="159.731562" y="89.141" transform="rotate(-0 159.731562 89.141)">SQ8-LUT</text>
    </g>
    <g id="line2d_24">
     <path d="M 137.331562 98.0835 
L 145.331562 98.0835 
L 153.331562 98.0835 
" style="fill: none; stroke: #cc78bc; stroke-width: 1.5; stroke-linecap: round"/>
     <g>
      <use xlink:href="#m641b0664d2" x="145.331562" y="98.0835" style="fill: #cc78bc; stroke: #ffffff; stroke-width: 0.75"/>
     </g>
    </g>
    <g id="text_16">
     <text style="fill: #262626; font: 8px 'DejaVu Sans'; text-anchor: start" x="159.731562" y="100.8835" transform="rotate(-0 159.731562 100.8835)">PQ M=12</text>
    </g>
   </g>
  </g>
 </g>
 <defs>
  <clipPath id="p7e493c0a1d">
   <rect x="40.932813" y="7.2" width="295.74" height="182.952"/>
  </clipPath>
 </defs>
</svg>
